solid CATIA STL
  facet normal  9.659238e-001 -2.000913e-003  2.588185e-001
    outer loop
      vertex  4.924039e+001  0.000000e+000  8.682409e+000
      vertex  4.792434e+001  8.574315e+001  1.425686e+001
      vertex  4.698463e+001  0.000000e+000  1.710101e+001
    endloop
  endfacet
  facet normal  9.335087e-001  1.662528e-003  3.585510e-001
    outer loop
      vertex  4.698463e+001  0.000000e+000  1.710101e+001
      vertex  4.792434e+001  8.574315e+001  1.425686e+001
      vertex  4.521251e+001  7.864984e+001  2.135016e+001
    endloop
  endfacet
  facet normal  9.063051e-001 -2.411661e-003  4.226170e-001
    outer loop
      vertex  4.698463e+001  0.000000e+000  1.710101e+001
      vertex  4.521251e+001  7.864984e+001  2.135016e+001
      vertex  4.330127e+001  0.000000e+000  2.500000e+001
    endloop
  endfacet
  facet normal  8.670612e-001  2.049388e-003  4.981974e-001
    outer loop
      vertex  4.521251e+001  7.864984e+001  2.135016e+001
      vertex  4.131453e+001  7.183779e+001  2.816221e+001
      vertex  4.330127e+001  0.000000e+000  2.500000e+001
    endloop
  endfacet
  facet normal  8.191494e-001 -2.593657e-003  5.735743e-001
    outer loop
      vertex  3.830222e+001  0.000000e+000  3.213938e+001
      vertex  4.330127e+001  0.000000e+000  2.500000e+001
      vertex  4.131453e+001  7.183779e+001  2.816221e+001
    endloop
  endfacet
  facet normal  7.811112e-001  1.814650e-003  6.243894e-001
    outer loop
      vertex  4.131453e+001  7.183779e+001  2.816221e+001
      vertex  3.666761e+001  6.600755e+001  3.399245e+001
      vertex  3.830222e+001  0.000000e+000  3.213938e+001
    endloop
  endfacet
  facet normal  7.071049e-001 -2.340168e-003  7.071049e-001
    outer loop
      vertex  3.213938e+001  0.000000e+000  3.830222e+001
      vertex  3.830222e+001  0.000000e+000  3.213938e+001
      vertex  3.666761e+001  6.600755e+001  3.399245e+001
    endloop
  endfacet
  facet normal  5.159878e-001  6.225427e-004  8.565957e-001
    outer loop
      vertex  2.759110e+001  5.830191e+001  4.169809e+001
      vertex  2.398954e+001  5.613086e+001  4.386914e+001
      vertex  2.500000e+001  0.000000e+000  4.330127e+001
    endloop
  endfacet
  facet normal  2.588174e-001 -3.526557e-003  9.659198e-001
    outer loop
      vertex  1.710101e+001  0.000000e+000  4.698463e+001
      vertex  1.375489e+001  5.192919e+001  4.807081e+001
      vertex  8.682409e+000  0.000000e+000  4.924039e+001
    endloop
  endfacet
  facet normal  2.188229e-001  6.018571e-004  9.757643e-001
    outer loop
      vertex  1.375489e+001  5.192919e+001  4.807081e+001
      vertex  8.103523e+000  5.066104e+001  4.933896e+001
      vertex  8.682409e+000  0.000000e+000  4.924039e+001
    endloop
  endfacet
  facet normal -2.588174e-001 -3.491045e-003  9.659199e-001
    outer loop
      vertex -8.682409e+000  0.000000e+000  4.924039e+001
      vertex -1.194085e+001  5.144677e+001  4.855323e+001
      vertex -1.710101e+001  0.000000e+000  4.698463e+001
    endloop
  endfacet
  facet normal -3.078563e-001  1.869361e-003  9.514310e-001
    outer loop
      vertex -1.194085e+001  5.144677e+001  4.855323e+001
      vertex -1.881897e+001  5.367672e+001  4.632328e+001
      vertex -1.710101e+001  0.000000e+000  4.698463e+001
    endloop
  endfacet
  facet normal -9.063052e-001 -2.380936e-003  4.226171e-001
    outer loop
      vertex -4.330127e+001  0.000000e+000  2.500000e+001
      vertex -4.505101e+001  7.831115e+001  2.168886e+001
      vertex -4.698463e+001  0.000000e+000  1.710101e+001
    endloop
  endfacet
  facet normal -9.327725e-001  1.914014e-003  3.604606e-001
    outer loop
      vertex -4.505101e+001  7.831115e+001  2.168886e+001
      vertex -4.797927e+001  8.592912e+001  1.407089e+001
      vertex -4.698463e+001  0.000000e+000  1.710101e+001
    endloop
  endfacet
  facet normal -9.659238e-001 -2.053923e-003  2.588185e-001
    outer loop
      vertex -4.924039e+001  0.000000e+000  8.682409e+000
      vertex -4.698463e+001  0.000000e+000  1.710101e+001
      vertex -4.797927e+001  8.592912e+001  1.407089e+001
    endloop
  endfacet
  facet normal  9.961948e-001  0.000000e+000  8.715583e-002
    outer loop
      vertex  5.000000e+001  0.000000e+000  6.123234e-015
      vertex  5.000000e+001  1.000000e+002  6.123234e-015
      vertex  4.924039e+001  0.000000e+000  8.682409e+000
    endloop
  endfacet
  facet normal  9.976514e-001 -1.632905e-003  6.847620e-002
    outer loop
      vertex  4.924039e+001  0.000000e+000  8.682409e+000
      vertex  5.000000e+001  1.000000e+002  6.123234e-015
      vertex  4.950858e+001  9.300710e+001  6.992908e+000
    endloop
  endfacet
  facet normal  9.768087e-001  1.072704e-003  2.141115e-001
    outer loop
      vertex  4.924039e+001  0.000000e+000  8.682409e+000
      vertex  4.950858e+001  9.300710e+001  6.992908e+000
      vertex  4.792434e+001  8.574315e+001  1.425686e+001
    endloop
  endfacet
  facet normal  5.872622e-001 -3.843221e-003  8.093876e-001
    outer loop
      vertex  2.759110e+001  5.830191e+001  4.169809e+001
      vertex  2.500000e+001  0.000000e+000  4.330127e+001
      vertex  3.090437e+001  6.069453e+001  3.930547e+001
    endloop
  endfacet
  facet normal  5.735753e-001 -1.868992e-003  8.191507e-001
    outer loop
      vertex  3.090437e+001  6.069453e+001  3.930547e+001
      vertex  2.500000e+001  0.000000e+000  4.330127e+001
      vertex  3.213938e+001  0.000000e+000  3.830222e+001
    endloop
  endfacet
  facet normal  6.770014e-001  1.610290e-003  7.359799e-001
    outer loop
      vertex  3.090437e+001  6.069453e+001  3.930547e+001
      vertex  3.213938e+001  0.000000e+000  3.830222e+001
      vertex  3.666761e+001  6.600755e+001  3.399245e+001
    endloop
  endfacet
  facet normal  4.226178e-001 -1.561211e-003  9.063067e-001
    outer loop
      vertex  2.500000e+001  0.000000e+000  4.330127e+001
      vertex  2.398954e+001  5.613086e+001  4.386914e+001
      vertex  1.710101e+001  0.000000e+000  4.698463e+001
    endloop
  endfacet
  facet normal  4.324712e-001 -3.029331e-003  9.016426e-001
    outer loop
      vertex  1.710101e+001  0.000000e+000  4.698463e+001
      vertex  2.398954e+001  5.613086e+001  4.386914e+001
      vertex  1.907592e+001  5.378194e+001  4.621806e+001
    endloop
  endfacet
  facet normal  3.283940e-001  1.403887e-003  9.445398e-001
    outer loop
      vertex  1.710101e+001  0.000000e+000  4.698463e+001
      vertex  1.907592e+001  5.378194e+001  4.621806e+001
      vertex  1.375489e+001  5.192919e+001  4.807081e+001
    endloop
  endfacet
  facet normal  8.715578e-002 -9.424082e-004  9.961943e-001
    outer loop
      vertex  8.682409e+000  0.000000e+000  4.924039e+001
      vertex  8.103523e+000  5.066104e+001  4.933896e+001
      vertex -3.061617e-015  0.000000e+000  5.000000e+001
    endloop
  endfacet
  facet normal  9.941807e-002 -2.918875e-003  9.950414e-001
    outer loop
      vertex -3.061617e-015  0.000000e+000  5.000000e+001
      vertex  8.103523e+000  5.066104e+001  4.933896e+001
      vertex  1.789556e+000  5.003204e+001  4.996796e+001
    endloop
  endfacet
  facet normal -2.793059e-002  1.639082e-003  9.996085e-001
    outer loop
      vertex -3.061617e-015  0.000000e+000  5.000000e+001
      vertex  1.789556e+000  5.003204e+001  4.996796e+001
      vertex -4.581535e+000  5.021035e+001  4.978965e+001
    endloop
  endfacet
  facet normal -8.715519e-002 -3.779307e-003  9.961876e-001
    outer loop
      vertex -3.061617e-015  0.000000e+000  5.000000e+001
      vertex -4.581535e+000  5.021035e+001  4.978965e+001
      vertex -8.682409e+000  0.000000e+000  4.924039e+001
    endloop
  endfacet
  facet normal -1.290071e-001 -3.113912e-004  9.916437e-001
    outer loop
      vertex -8.682409e+000  0.000000e+000  4.924039e+001
      vertex -4.581535e+000  5.021035e+001  4.978965e+001
      vertex -8.306114e+000  5.069474e+001  4.930526e+001
    endloop
  endfacet
  facet normal -2.025598e-001  2.504074e-004  9.792698e-001
    outer loop
      vertex -8.682409e+000  0.000000e+000  4.924039e+001
      vertex -8.306114e+000  5.069474e+001  4.930526e+001
      vertex -1.194085e+001  5.144677e+001  4.855323e+001
    endloop
  endfacet
  facet normal -4.226171e-001 -2.359625e-003  9.063053e-001
    outer loop
      vertex -1.710101e+001  0.000000e+000  4.698463e+001
      vertex -1.881897e+001  5.367672e+001  4.632328e+001
      vertex -2.500000e+001  0.000000e+000  4.330127e+001
    endloop
  endfacet
  facet normal -4.382946e-001 -1.335340e-004  8.988314e-001
    outer loop
      vertex -2.500000e+001  0.000000e+000  4.330127e+001
      vertex -1.881897e+001  5.367672e+001  4.632328e+001
      vertex -2.490465e+001  5.664383e+001  4.335618e+001
    endloop
  endfacet
  facet normal -5.735763e-001  1.714191e-004  8.191522e-001
    outer loop
      vertex -2.500000e+001  0.000000e+000  4.330127e+001
      vertex -2.490465e+001  5.664383e+001  4.335618e+001
      vertex -3.213938e+001  0.000000e+000  3.830222e+001
    endloop
  endfacet
  facet normal -5.547362e-001 -3.382947e-003  8.320194e-001
    outer loop
      vertex -3.213938e+001  0.000000e+000  3.830222e+001
      vertex -2.490465e+001  5.664383e+001  4.335618e+001
      vertex -3.029747e+001  6.022484e+001  3.977516e+001
    endloop
  endfacet
  facet normal -6.532983e-001  1.463820e-003  7.570991e-001
    outer loop
      vertex -3.213938e+001  0.000000e+000  3.830222e+001
      vertex -3.029747e+001  6.022484e+001  3.977516e+001
      vertex -3.497948e+001  6.427275e+001  3.572725e+001
    endloop
  endfacet
  facet normal -7.071037e-001 -2.916722e-003  7.071037e-001
    outer loop
      vertex -3.213938e+001  0.000000e+000  3.830222e+001
      vertex -3.497948e+001  6.427275e+001  3.572725e+001
      vertex -3.830222e+001  0.000000e+000  3.213938e+001
    endloop
  endfacet
  facet normal -7.297471e-001 -4.406122e-004  6.837171e-001
    outer loop
      vertex -3.830222e+001  0.000000e+000  3.213938e+001
      vertex -3.497948e+001  6.427275e+001  3.572725e+001
      vertex -3.790646e+001  6.739478e+001  3.260522e+001
    endloop
  endfacet
  facet normal -7.844926e-001  3.203417e-004  6.201380e-001
    outer loop
      vertex -3.830222e+001  0.000000e+000  3.213938e+001
      vertex -3.790646e+001  6.739478e+001  3.260522e+001
      vertex -4.049023e+001  7.066501e+001  2.933499e+001
    endloop
  endfacet
  facet normal -8.191494e-001 -2.600659e-003  5.735743e-001
    outer loop
      vertex -3.830222e+001  0.000000e+000  3.213938e+001
      vertex -4.049023e+001  7.066501e+001  2.933499e+001
      vertex -4.330127e+001  0.000000e+000  2.500000e+001
    endloop
  endfacet
  facet normal -8.356290e-001 -4.556169e-004  5.492941e-001
    outer loop
      vertex -4.330127e+001  0.000000e+000  2.500000e+001
      vertex -4.049023e+001  7.066501e+001  2.933499e+001
      vertex -4.296688e+001  7.442956e+001  2.557044e+001
    endloop
  endfacet
  facet normal -8.808965e-001  3.301219e-004  4.733088e-001
    outer loop
      vertex -4.330127e+001  0.000000e+000  2.500000e+001
      vertex -4.296688e+001  7.442956e+001  2.557044e+001
      vertex -4.505101e+001  7.831115e+001  2.168886e+001
    endloop
  endfacet
  facet normal -9.970273e-001  0.000000e+000  7.704890e-002
    outer loop
      vertex -5.000000e+001  1.000000e+002  0.000000e+000
      vertex -5.000000e+001  0.000000e+000  0.000000e+000
      vertex -4.940635e+001  9.231800e+001  7.682003e+000
    endloop
  endfacet
  facet normal -9.961944e-001 -8.463748e-004  8.715579e-002
    outer loop
      vertex -4.940635e+001  9.231800e+001  7.682003e+000
      vertex -5.000000e+001  0.000000e+000  0.000000e+000
      vertex -4.924039e+001  0.000000e+000  8.682409e+000
    endloop
  endfacet
  facet normal -9.758184e-001  6.144580e-004  2.185820e-001
    outer loop
      vertex -4.940635e+001  9.231800e+001  7.682003e+000
      vertex -4.924039e+001  0.000000e+000  8.682409e+000
      vertex -4.797927e+001  8.592912e+001  1.407089e+001
    endloop
  endfacet
  facet normal  9.659240e-001  1.995961e-003  2.588185e-001
    outer loop
      vertex  4.924039e+001  2.000000e+002  8.682409e+000
      vertex  4.698463e+001  2.000000e+002  1.710101e+001
      vertex  4.791960e+001  1.142728e+002  1.427276e+001
    endloop
  endfacet
  facet normal  9.313562e-001 -1.854562e-003  3.641046e-001
    outer loop
      vertex  4.496991e+001  1.218565e+002  2.185652e+001
      vertex  4.791960e+001  1.142728e+002  1.427276e+001
      vertex  4.698463e+001  2.000000e+002  1.710101e+001
    endloop
  endfacet
  facet normal  9.063053e-001  2.352162e-003  4.226171e-001
    outer loop
      vertex  4.698463e+001  2.000000e+002  1.710101e+001
      vertex  4.330127e+001  2.000000e+002  2.500000e+001
      vertex  4.496991e+001  1.218565e+002  2.185652e+001
    endloop
  endfacet
  facet normal  6.512406e-001 -1.489931e-003  7.588698e-001
    outer loop
      vertex  3.488061e+001  1.358238e+002  3.582378e+001
      vertex  3.213938e+001  2.000000e+002  3.830222e+001
      vertex  3.019247e+001  1.398549e+002  3.985492e+001
    endloop
  endfacet
  facet normal  5.735744e-001  2.580315e-003  8.191495e-001
    outer loop
      vertex  3.019247e+001  1.398549e+002  3.985492e+001
      vertex  3.213938e+001  2.000000e+002  3.830222e+001
      vertex  2.500000e+001  2.000000e+002  4.330127e+001
    endloop
  endfacet
  facet normal  3.056637e-001 -1.788177e-003  9.521378e-001
    outer loop
      vertex  1.182808e+001  1.485808e+002  4.858082e+001
      vertex  1.871034e+001  1.463673e+002  4.636726e+001
      vertex  1.710101e+001  2.000000e+002  4.698463e+001
    endloop
  endfacet
  facet normal  2.588175e-001  3.443634e-003  9.659201e-001
    outer loop
      vertex  1.710101e+001  2.000000e+002  4.698463e+001
      vertex  8.682409e+000  2.000000e+002  4.924039e+001
      vertex  1.182808e+001  1.485808e+002  4.858082e+001
    endloop
  endfacet
  facet normal -2.211805e-001 -4.939215e-004  9.752328e-001
    outer loop
      vertex -1.387307e+001  1.480368e+002  4.803684e+001
      vertex -8.218424e+000  1.493199e+002  4.931995e+001
      vertex -8.682409e+000  2.000000e+002  4.924039e+001
    endloop
  endfacet
  facet normal -2.588175e-001  3.481376e-003  9.659200e-001
    outer loop
      vertex -8.682409e+000  2.000000e+002  4.924039e+001
      vertex -1.710101e+001  2.000000e+002  4.698463e+001
      vertex -1.387307e+001  1.480368e+002  4.803684e+001
    endloop
  endfacet
  facet normal -6.794144e-001 -1.496325e-003  7.337533e-001
    outer loop
      vertex -3.678247e+001  1.338681e+002  3.386812e+001
      vertex -3.102345e+001  1.392115e+002  3.921155e+001
      vertex -3.213938e+001  2.000000e+002  3.830222e+001
    endloop
  endfacet
  facet normal -7.071050e-001  2.234574e-003  7.071050e-001
    outer loop
      vertex -3.213938e+001  2.000000e+002  3.830222e+001
      vertex -3.830222e+001  2.000000e+002  3.213938e+001
      vertex -3.678247e+001  1.338681e+002  3.386812e+001
    endloop
  endfacet
  facet normal -7.833530e-001 -1.753487e-003  6.215745e-001
    outer loop
      vertex -4.141911e+001  1.280082e+002  2.800817e+001
      vertex -3.678247e+001  1.338681e+002  3.386812e+001
      vertex -3.830222e+001  2.000000e+002  3.213938e+001
    endloop
  endfacet
  facet normal -8.191495e-001  2.550791e-003  5.735744e-001
    outer loop
      vertex -3.830222e+001  2.000000e+002  3.213938e+001
      vertex -4.330127e+001  2.000000e+002  2.500000e+001
      vertex -4.141911e+001  1.280082e+002  2.800817e+001
    endloop
  endfacet
  facet normal -8.691573e-001 -2.059419e-003  4.945313e-001
    outer loop
      vertex -4.531340e+001  1.211352e+002  2.113518e+001
      vertex -4.141911e+001  1.280082e+002  2.800817e+001
      vertex -4.330127e+001  2.000000e+002  2.500000e+001
    endloop
  endfacet
  facet normal -9.063051e-001  2.412562e-003  4.226170e-001
    outer loop
      vertex -4.330127e+001  2.000000e+002  2.500000e+001
      vertex -4.698463e+001  2.000000e+002  1.710101e+001
      vertex -4.531340e+001  1.211352e+002  2.113518e+001
    endloop
  endfacet
  facet normal -9.353565e-001 -1.728264e-003  3.537024e-001
    outer loop
      vertex -4.531340e+001  1.211352e+002  2.113518e+001
      vertex -4.698463e+001  2.000000e+002  1.710101e+001
      vertex -4.800562e+001  1.139807e+002  1.398072e+001
    endloop
  endfacet
  facet normal -9.659237e-001  2.076391e-003  2.588185e-001
    outer loop
      vertex -4.800562e+001  1.139807e+002  1.398072e+001
      vertex -4.698463e+001  2.000000e+002  1.710101e+001
      vertex -4.924039e+001  2.000000e+002  8.682409e+000
    endloop
  endfacet
  facet normal  9.968200e-001  0.000000e+000  7.968724e-002
    outer loop
      vertex  5.000000e+001  1.000000e+002  6.123234e-015
      vertex  5.000000e+001  2.000000e+002  6.123234e-015
      vertex  4.936499e+001  1.079434e+002  7.943388e+000
    endloop
  endfacet
  facet normal  9.961945e-001  6.487622e-004  8.715580e-002
    outer loop
      vertex  4.936499e+001  1.079434e+002  7.943388e+000
      vertex  5.000000e+001  2.000000e+002  6.123234e-015
      vertex  4.924039e+001  2.000000e+002  8.682409e+000
    endloop
  endfacet
  facet normal  9.748002e-001 -4.713781e-004  2.230793e-001
    outer loop
      vertex  4.936499e+001  1.079434e+002  7.943388e+000
      vertex  4.924039e+001  2.000000e+002  8.682409e+000
      vertex  4.791960e+001  1.142728e+002  1.427276e+001
    endloop
  endfacet
  facet normal  8.191494e-001  2.559337e-003  5.735744e-001
    outer loop
      vertex  3.830222e+001  2.000000e+002  3.213938e+001
      vertex  4.038211e+001  1.294837e+002  2.948365e+001
      vertex  4.330127e+001  2.000000e+002  2.500000e+001
    endloop
  endfacet
  facet normal  8.336661e-001  6.036971e-004  5.522684e-001
    outer loop
      vertex  4.330127e+001  2.000000e+002  2.500000e+001
      vertex  4.038211e+001  1.294837e+002  2.948365e+001
      vertex  4.287209e+001  1.257290e+002  2.572905e+001
    endloop
  endfacet
  facet normal  8.791049e-001 -4.013638e-004  4.766281e-001
    outer loop
      vertex  4.330127e+001  2.000000e+002  2.500000e+001
      vertex  4.287209e+001  1.257290e+002  2.572905e+001
      vertex  4.496991e+001  1.218565e+002  2.185652e+001
    endloop
  endfacet
  facet normal  7.071038e-001  2.895384e-003  7.071038e-001
    outer loop
      vertex  3.213938e+001  2.000000e+002  3.830222e+001
      vertex  3.488061e+001  1.358238e+002  3.582378e+001
      vertex  3.830222e+001  2.000000e+002  3.213938e+001
    endloop
  endfacet
  facet normal  7.277611e-001  5.727142e-004  6.858306e-001
    outer loop
      vertex  3.830222e+001  2.000000e+002  3.213938e+001
      vertex  3.488061e+001  1.358238e+002  3.582378e+001
      vertex  3.780098e+001  1.327274e+002  3.272745e+001
    endloop
  endfacet
  facet normal  7.823159e-001 -3.840470e-004  6.228817e-001
    outer loop
      vertex  3.830222e+001  2.000000e+002  3.213938e+001
      vertex  3.780098e+001  1.327274e+002  3.272745e+001
      vertex  4.038211e+001  1.294837e+002  2.948365e+001
    endloop
  endfacet
  facet normal  4.226172e-001  2.248764e-003  9.063055e-001
    outer loop
      vertex  1.710101e+001  2.000000e+002  4.698463e+001
      vertex  1.871034e+001  1.463673e+002  4.636726e+001
      vertex  2.500000e+001  2.000000e+002  4.330127e+001
    endloop
  endfacet
  facet normal  4.361766e-001  2.902070e-004  8.998610e-001
    outer loop
      vertex  2.500000e+001  2.000000e+002  4.330127e+001
      vertex  1.871034e+001  1.463673e+002  4.636726e+001
      vertex  2.479615e+001  1.434183e+002  4.341833e+001
    endloop
  endfacet
  facet normal  5.509210e-001 -2.582941e-004  8.345574e-001
    outer loop
      vertex  2.500000e+001  2.000000e+002  4.330127e+001
      vertex  2.479615e+001  1.434183e+002  4.341833e+001
      vertex  3.019247e+001  1.398549e+002  3.985492e+001
    endloop
  endfacet
  facet normal  8.715519e-002  3.787620e-003  9.961875e-001
    outer loop
      vertex -3.061617e-015  2.000000e+002  5.000000e+001
      vertex  4.468983e+000  1.497999e+002  4.979988e+001
      vertex  8.682409e+000  2.000000e+002  4.924039e+001
    endloop
  endfacet
  facet normal  1.267594e-001  4.161179e-004  9.919333e-001
    outer loop
      vertex  8.682409e+000  2.000000e+002  4.924039e+001
      vertex  4.468983e+000  1.497999e+002  4.979988e+001
      vertex  8.192843e+000  1.493242e+002  4.932421e+001
    endloop
  endfacet
  facet normal  2.002862e-001 -3.143780e-004  9.797374e-001
    outer loop
      vertex  8.682409e+000  2.000000e+002  4.924039e+001
      vertex  8.192843e+000  1.493242e+002  4.932421e+001
      vertex  1.182808e+001  1.485808e+002  4.858082e+001
    endloop
  endfacet
  facet normal -8.715580e-002  7.660083e-004  9.961944e-001
    outer loop
      vertex -8.682409e+000  2.000000e+002  4.924039e+001
      vertex -8.218424e+000  1.493199e+002  4.931995e+001
      vertex -3.061617e-015  2.000000e+002  5.000000e+001
    endloop
  endfacet
  facet normal -1.017578e-001  3.152574e-003  9.948043e-001
    outer loop
      vertex -3.061617e-015  2.000000e+002  5.000000e+001
      vertex -8.218424e+000  1.493199e+002  4.931995e+001
      vertex -1.905139e+000  1.499637e+002  4.996369e+001
    endloop
  endfacet
  facet normal  2.564711e-002 -1.701916e-003  9.996696e-001
    outer loop
      vertex -3.061617e-015  2.000000e+002  5.000000e+001
      vertex -1.905139e+000  1.499637e+002  4.996369e+001
      vertex  4.468983e+000  1.497999e+002  4.979988e+001
    endloop
  endfacet
  facet normal -4.226178e-001  1.405614e-003  9.063069e-001
    outer loop
      vertex -2.500000e+001  2.000000e+002  4.330127e+001
      vertex -2.410549e+001  1.438055e+002  4.380554e+001
      vertex -1.710101e+001  2.000000e+002  4.698463e+001
    endloop
  endfacet
  facet normal -4.349173e-001  3.269230e-003  9.004645e-001
    outer loop
      vertex -1.710101e+001  2.000000e+002  4.698463e+001
      vertex -2.410549e+001  1.438055e+002  4.380554e+001
      vertex -1.919428e+001  1.461690e+002  4.616903e+001
    endloop
  endfacet
  facet normal -3.307511e-001 -1.436711e-003  9.437169e-001
    outer loop
      vertex -1.710101e+001  2.000000e+002  4.698463e+001
      vertex -1.919428e+001  1.461690e+002  4.616903e+001
      vertex -1.387307e+001  1.480368e+002  4.803684e+001
    endloop
  endfacet
  facet normal -5.735754e-001  1.724075e-003  8.191509e-001
    outer loop
      vertex -3.213938e+001  2.000000e+002  3.830222e+001
      vertex -3.102345e+001  1.392115e+002  3.921155e+001
      vertex -2.500000e+001  2.000000e+002  4.330127e+001
    endloop
  endfacet
  facet normal -5.897714e-001  4.108761e-003  8.075597e-001
    outer loop
      vertex -2.500000e+001  2.000000e+002  4.330127e+001
      vertex -3.102345e+001  1.392115e+002  3.921155e+001
      vertex -2.770964e+001  1.416194e+002  4.161942e+001
    endloop
  endfacet
  facet normal -5.183561e-001 -5.772857e-004  8.551646e-001
    outer loop
      vertex -2.500000e+001  2.000000e+002  4.330127e+001
      vertex -2.770964e+001  1.416194e+002  4.161942e+001
      vertex -2.410549e+001  1.438055e+002  4.380554e+001
    endloop
  endfacet
  facet normal -9.961948e-001  0.000000e+000  8.715583e-002
    outer loop
      vertex -5.000000e+001  2.000000e+002  0.000000e+000
      vertex -5.000000e+001  1.000000e+002  0.000000e+000
      vertex -4.924039e+001  2.000000e+002  8.682409e+000
    endloop
  endfacet
  facet normal -9.978984e-001  1.956687e-003  6.476866e-002
    outer loop
      vertex -4.924039e+001  2.000000e+002  8.682409e+000
      vertex -5.000000e+001  1.000000e+002  0.000000e+000
      vertex -4.955489e+001  1.066568e+002  6.656821e+000
    endloop
  endfacet
  facet normal -9.781016e-001 -1.220896e-003  2.081243e-001
    outer loop
      vertex -4.924039e+001  2.000000e+002  8.682409e+000
      vertex -4.955489e+001  1.066568e+002  6.656821e+000
      vertex -4.800562e+001  1.139807e+002  1.398072e+001
    endloop
  endfacet
  facet normal -9.961948e-001  0.000000e+000 -8.715583e-002
    outer loop
      vertex -5.000000e+001  2.000000e+002  0.000000e+000
      vertex -4.924039e+001  2.000000e+002 -8.682409e+000
      vertex -5.000000e+001  1.000000e+002  0.000000e+000
    endloop
  endfacet
  facet normal  9.961948e-001  0.000000e+000 -8.715583e-002
    outer loop
      vertex  5.000000e+001  0.000000e+000  6.123234e-015
      vertex  4.924039e+001  0.000000e+000 -8.682409e+000
      vertex  5.000000e+001  1.000000e+002  6.123234e-015
    endloop
  endfacet
  facet normal -9.961948e-001  -0.000000e+000 -8.715583e-002
    outer loop
      vertex -5.000000e+001  0.000000e+000  0.000000e+000
      vertex -5.000000e+001  1.000000e+002  0.000000e+000
      vertex -4.924039e+001  0.000000e+000 -8.682409e+000
    endloop
  endfacet
  facet normal -9.961948e-001  0.000000e+000 -8.715583e-002
    outer loop
      vertex -4.924039e+001  0.000000e+000 -8.682409e+000
      vertex -5.000000e+001  1.000000e+002  0.000000e+000
      vertex -4.924039e+001  2.000000e+002 -8.682409e+000
    endloop
  endfacet
  facet normal -9.659258e-001  -0.000000e+000 -2.588190e-001
    outer loop
      vertex -4.924039e+001  0.000000e+000 -8.682409e+000
      vertex -4.924039e+001  2.000000e+002 -8.682409e+000
      vertex -4.698463e+001  0.000000e+000 -1.710101e+001
    endloop
  endfacet
  facet normal -9.659258e-001  0.000000e+000 -2.588190e-001
    outer loop
      vertex -4.698463e+001  0.000000e+000 -1.710101e+001
      vertex -4.924039e+001  2.000000e+002 -8.682409e+000
      vertex -4.698463e+001  2.000000e+002 -1.710101e+001
    endloop
  endfacet
  facet normal -9.063078e-001  -0.000000e+000 -4.226183e-001
    outer loop
      vertex -4.698463e+001  0.000000e+000 -1.710101e+001
      vertex -4.698463e+001  2.000000e+002 -1.710101e+001
      vertex -4.330127e+001  0.000000e+000 -2.500000e+001
    endloop
  endfacet
  facet normal -9.063078e-001  0.000000e+000 -4.226183e-001
    outer loop
      vertex -4.330127e+001  0.000000e+000 -2.500000e+001
      vertex -4.698463e+001  2.000000e+002 -1.710101e+001
      vertex -4.330127e+001  2.000000e+002 -2.500000e+001
    endloop
  endfacet
  facet normal -8.191521e-001  -0.000000e+000 -5.735763e-001
    outer loop
      vertex -4.330127e+001  0.000000e+000 -2.500000e+001
      vertex -4.330127e+001  2.000000e+002 -2.500000e+001
      vertex -3.830222e+001  0.000000e+000 -3.213938e+001
    endloop
  endfacet
  facet normal -8.191521e-001  0.000000e+000 -5.735763e-001
    outer loop
      vertex -3.830222e+001  0.000000e+000 -3.213938e+001
      vertex -4.330127e+001  2.000000e+002 -2.500000e+001
      vertex -3.830222e+001  2.000000e+002 -3.213938e+001
    endloop
  endfacet
  facet normal -7.071068e-001  -0.000000e+000 -7.071068e-001
    outer loop
      vertex -3.830222e+001  0.000000e+000 -3.213938e+001
      vertex -3.830222e+001  2.000000e+002 -3.213938e+001
      vertex -3.213938e+001  0.000000e+000 -3.830222e+001
    endloop
  endfacet
  facet normal -7.071068e-001  0.000000e+000 -7.071068e-001
    outer loop
      vertex -3.213938e+001  0.000000e+000 -3.830222e+001
      vertex -3.830222e+001  2.000000e+002 -3.213938e+001
      vertex -3.213938e+001  2.000000e+002 -3.830222e+001
    endloop
  endfacet
  facet normal -5.735763e-001  -0.000000e+000 -8.191521e-001
    outer loop
      vertex -3.213938e+001  0.000000e+000 -3.830222e+001
      vertex -3.213938e+001  2.000000e+002 -3.830222e+001
      vertex -2.500000e+001  0.000000e+000 -4.330127e+001
    endloop
  endfacet
  facet normal -5.735763e-001  0.000000e+000 -8.191521e-001
    outer loop
      vertex -2.500000e+001  0.000000e+000 -4.330127e+001
      vertex -3.213938e+001  2.000000e+002 -3.830222e+001
      vertex -2.500000e+001  2.000000e+002 -4.330127e+001
    endloop
  endfacet
  facet normal -4.226183e-001  -0.000000e+000 -9.063078e-001
    outer loop
      vertex -2.500000e+001  0.000000e+000 -4.330127e+001
      vertex -2.500000e+001  2.000000e+002 -4.330127e+001
      vertex -1.710101e+001  0.000000e+000 -4.698463e+001
    endloop
  endfacet
  facet normal -4.226183e-001  0.000000e+000 -9.063078e-001
    outer loop
      vertex -1.710101e+001  0.000000e+000 -4.698463e+001
      vertex -2.500000e+001  2.000000e+002 -4.330127e+001
      vertex -1.710101e+001  2.000000e+002 -4.698463e+001
    endloop
  endfacet
  facet normal -2.588190e-001  -0.000000e+000 -9.659258e-001
    outer loop
      vertex -1.710101e+001  0.000000e+000 -4.698463e+001
      vertex -1.710101e+001  2.000000e+002 -4.698463e+001
      vertex -8.682409e+000  0.000000e+000 -4.924039e+001
    endloop
  endfacet
  facet normal -2.588190e-001  0.000000e+000 -9.659258e-001
    outer loop
      vertex -8.682409e+000  0.000000e+000 -4.924039e+001
      vertex -1.710101e+001  2.000000e+002 -4.698463e+001
      vertex -8.682409e+000  2.000000e+002 -4.924039e+001
    endloop
  endfacet
  facet normal -8.715583e-002  -0.000000e+000 -9.961948e-001
    outer loop
      vertex -8.682409e+000  0.000000e+000 -4.924039e+001
      vertex -8.682409e+000  2.000000e+002 -4.924039e+001
      vertex  9.184851e-015  0.000000e+000 -5.000000e+001
    endloop
  endfacet
  facet normal -8.715583e-002  0.000000e+000 -9.961948e-001
    outer loop
      vertex  9.184851e-015  0.000000e+000 -5.000000e+001
      vertex -8.682409e+000  2.000000e+002 -4.924039e+001
      vertex  9.184851e-015  2.000000e+002 -5.000000e+001
    endloop
  endfacet
  facet normal  8.715583e-002  0.000000e+000 -9.961948e-001
    outer loop
      vertex  9.184851e-015  0.000000e+000 -5.000000e+001
      vertex  9.184851e-015  2.000000e+002 -5.000000e+001
      vertex  8.682409e+000  0.000000e+000 -4.924039e+001
    endloop
  endfacet
  facet normal  8.715583e-002  0.000000e+000 -9.961948e-001
    outer loop
      vertex  8.682409e+000  0.000000e+000 -4.924039e+001
      vertex  9.184851e-015  2.000000e+002 -5.000000e+001
      vertex  8.682409e+000  2.000000e+002 -4.924039e+001
    endloop
  endfacet
  facet normal  2.588190e-001  0.000000e+000 -9.659258e-001
    outer loop
      vertex  8.682409e+000  0.000000e+000 -4.924039e+001
      vertex  8.682409e+000  2.000000e+002 -4.924039e+001
      vertex  1.710101e+001  0.000000e+000 -4.698463e+001
    endloop
  endfacet
  facet normal  2.588190e-001  0.000000e+000 -9.659258e-001
    outer loop
      vertex  1.710101e+001  0.000000e+000 -4.698463e+001
      vertex  8.682409e+000  2.000000e+002 -4.924039e+001
      vertex  1.710101e+001  2.000000e+002 -4.698463e+001
    endloop
  endfacet
  facet normal  4.226183e-001  0.000000e+000 -9.063078e-001
    outer loop
      vertex  1.710101e+001  0.000000e+000 -4.698463e+001
      vertex  1.710101e+001  2.000000e+002 -4.698463e+001
      vertex  2.500000e+001  0.000000e+000 -4.330127e+001
    endloop
  endfacet
  facet normal  4.226183e-001  0.000000e+000 -9.063078e-001
    outer loop
      vertex  2.500000e+001  0.000000e+000 -4.330127e+001
      vertex  1.710101e+001  2.000000e+002 -4.698463e+001
      vertex  2.500000e+001  2.000000e+002 -4.330127e+001
    endloop
  endfacet
  facet normal  5.735763e-001  0.000000e+000 -8.191521e-001
    outer loop
      vertex  2.500000e+001  0.000000e+000 -4.330127e+001
      vertex  2.500000e+001  2.000000e+002 -4.330127e+001
      vertex  3.213938e+001  0.000000e+000 -3.830222e+001
    endloop
  endfacet
  facet normal  5.735763e-001  0.000000e+000 -8.191521e-001
    outer loop
      vertex  3.213938e+001  0.000000e+000 -3.830222e+001
      vertex  2.500000e+001  2.000000e+002 -4.330127e+001
      vertex  3.213938e+001  2.000000e+002 -3.830222e+001
    endloop
  endfacet
  facet normal  7.071068e-001  0.000000e+000 -7.071068e-001
    outer loop
      vertex  3.213938e+001  0.000000e+000 -3.830222e+001
      vertex  3.213938e+001  2.000000e+002 -3.830222e+001
      vertex  3.830222e+001  0.000000e+000 -3.213938e+001
    endloop
  endfacet
  facet normal  7.071068e-001  0.000000e+000 -7.071068e-001
    outer loop
      vertex  3.830222e+001  0.000000e+000 -3.213938e+001
      vertex  3.213938e+001  2.000000e+002 -3.830222e+001
      vertex  3.830222e+001  2.000000e+002 -3.213938e+001
    endloop
  endfacet
  facet normal  8.191521e-001  0.000000e+000 -5.735763e-001
    outer loop
      vertex  3.830222e+001  0.000000e+000 -3.213938e+001
      vertex  3.830222e+001  2.000000e+002 -3.213938e+001
      vertex  4.330127e+001  0.000000e+000 -2.500000e+001
    endloop
  endfacet
  facet normal  8.191521e-001  0.000000e+000 -5.735763e-001
    outer loop
      vertex  4.330127e+001  0.000000e+000 -2.500000e+001
      vertex  3.830222e+001  2.000000e+002 -3.213938e+001
      vertex  4.330127e+001  2.000000e+002 -2.500000e+001
    endloop
  endfacet
  facet normal  9.063078e-001  0.000000e+000 -4.226183e-001
    outer loop
      vertex  4.330127e+001  0.000000e+000 -2.500000e+001
      vertex  4.330127e+001  2.000000e+002 -2.500000e+001
      vertex  4.698463e+001  0.000000e+000 -1.710101e+001
    endloop
  endfacet
  facet normal  9.063078e-001  0.000000e+000 -4.226183e-001
    outer loop
      vertex  4.698463e+001  0.000000e+000 -1.710101e+001
      vertex  4.330127e+001  2.000000e+002 -2.500000e+001
      vertex  4.698463e+001  2.000000e+002 -1.710101e+001
    endloop
  endfacet
  facet normal  9.659258e-001  0.000000e+000 -2.588190e-001
    outer loop
      vertex  4.698463e+001  0.000000e+000 -1.710101e+001
      vertex  4.698463e+001  2.000000e+002 -1.710101e+001
      vertex  4.924039e+001  0.000000e+000 -8.682409e+000
    endloop
  endfacet
  facet normal  9.659258e-001  0.000000e+000 -2.588190e-001
    outer loop
      vertex  4.924039e+001  0.000000e+000 -8.682409e+000
      vertex  4.698463e+001  2.000000e+002 -1.710101e+001
      vertex  4.924039e+001  2.000000e+002 -8.682409e+000
    endloop
  endfacet
  facet normal  9.961948e-001  0.000000e+000 -8.715583e-002
    outer loop
      vertex  4.924039e+001  0.000000e+000 -8.682409e+000
      vertex  4.924039e+001  2.000000e+002 -8.682409e+000
      vertex  5.000000e+001  1.000000e+002  6.123234e-015
    endloop
  endfacet
  facet normal  9.961948e-001  0.000000e+000 -8.715583e-002
    outer loop
      vertex  5.000000e+001  1.000000e+002  6.123234e-015
      vertex  4.924039e+001  2.000000e+002 -8.682409e+000
      vertex  5.000000e+001  2.000000e+002  6.123234e-015
    endloop
  endfacet
  facet normal -9.659237e-001  2.588186e-001  2.076386e-003
    outer loop
      vertex -4.924039e+001  1.086824e+002  1.000000e+002
      vertex -4.698463e+001  1.171010e+002  1.000000e+002
      vertex -4.800562e+001  1.139807e+002  1.398072e+001
    endloop
  endfacet
  facet normal -9.353566e-001  3.537021e-001 -1.728253e-003
    outer loop
      vertex -4.531340e+001  1.211352e+002  2.113518e+001
      vertex -4.800562e+001  1.139807e+002  1.398072e+001
      vertex -4.698463e+001  1.171010e+002  1.000000e+002
    endloop
  endfacet
  facet normal -9.063052e-001  4.226170e-001  2.412586e-003
    outer loop
      vertex -4.698463e+001  1.171010e+002  1.000000e+002
      vertex -4.330127e+001  1.250000e+002  1.000000e+002
      vertex -4.531340e+001  1.211352e+002  2.113518e+001
    endloop
  endfacet
  facet normal -8.691571e-001  4.945316e-001 -2.059414e-003
    outer loop
      vertex -4.531340e+001  1.211352e+002  2.113518e+001
      vertex -4.330127e+001  1.250000e+002  1.000000e+002
      vertex -4.141911e+001  1.280082e+002  2.800817e+001
    endloop
  endfacet
  facet normal -8.191492e-001  5.735748e-001  2.550800e-003
    outer loop
      vertex -4.141911e+001  1.280082e+002  2.800817e+001
      vertex -4.330127e+001  1.250000e+002  1.000000e+002
      vertex -3.830222e+001  1.321394e+002  1.000000e+002
    endloop
  endfacet
  facet normal -7.833529e-001  6.215747e-001 -1.753446e-003
    outer loop
      vertex -4.141911e+001  1.280082e+002  2.800817e+001
      vertex -3.830222e+001  1.321394e+002  1.000000e+002
      vertex -3.678247e+001  1.338681e+002  3.386812e+001
    endloop
  endfacet
  facet normal -7.071050e-001  7.071050e-001  2.234615e-003
    outer loop
      vertex -3.678247e+001  1.338681e+002  3.386812e+001
      vertex -3.830222e+001  1.321394e+002  1.000000e+002
      vertex -3.213938e+001  1.383022e+002  1.000000e+002
    endloop
  endfacet
  facet normal -3.307499e-001  9.437174e-001 -1.436765e-003
    outer loop
      vertex -1.387307e+001  1.480368e+002  4.803684e+001
      vertex -1.919428e+001  1.461690e+002  4.616903e+001
      vertex -1.710101e+001  1.469846e+002  1.000000e+002
    endloop
  endfacet
  facet normal -2.588170e-001  9.659201e-001  3.481261e-003
    outer loop
      vertex -1.710101e+001  1.469846e+002  1.000000e+002
      vertex -8.682409e+000  1.492404e+002  1.000000e+002
      vertex -1.387307e+001  1.480368e+002  4.803684e+001
    endloop
  endfacet
  facet normal  2.002842e-001  9.797378e-001 -3.144321e-004
    outer loop
      vertex  1.182808e+001  1.485808e+002  4.858082e+001
      vertex  8.192843e+000  1.493242e+002  4.932421e+001
      vertex  8.682409e+000  1.492404e+002  1.000000e+002
    endloop
  endfacet
  facet normal  2.588171e-001  9.659202e-001  3.443678e-003
    outer loop
      vertex  8.682409e+000  1.492404e+002  1.000000e+002
      vertex  1.710101e+001  1.469846e+002  1.000000e+002
      vertex  1.182808e+001  1.485808e+002  4.858082e+001
    endloop
  endfacet
  facet normal  5.509201e-001  8.345580e-001 -2.584024e-004
    outer loop
      vertex  3.019247e+001  1.398549e+002  3.985492e+001
      vertex  2.479615e+001  1.434183e+002  4.341833e+001
      vertex  2.500000e+001  1.433013e+002  1.000000e+002
    endloop
  endfacet
  facet normal  5.735749e-001  8.191490e-001  2.580388e-003
    outer loop
      vertex  2.500000e+001  1.433013e+002  1.000000e+002
      vertex  3.213938e+001  1.383022e+002  1.000000e+002
      vertex  3.019247e+001  1.398549e+002  3.985492e+001
    endloop
  endfacet
  facet normal  8.791054e-001  4.766272e-001 -4.013634e-004
    outer loop
      vertex  4.496991e+001  1.218565e+002  2.185652e+001
      vertex  4.287209e+001  1.257290e+002  2.572905e+001
      vertex  4.330127e+001  1.250000e+002  1.000000e+002
    endloop
  endfacet
  facet normal  9.063053e-001  4.226171e-001  2.352125e-003
    outer loop
      vertex  4.330127e+001  1.250000e+002  1.000000e+002
      vertex  4.698463e+001  1.171010e+002  1.000000e+002
      vertex  4.496991e+001  1.218565e+002  2.185652e+001
    endloop
  endfacet
  facet normal  9.313562e-001  3.641048e-001 -1.854573e-003
    outer loop
      vertex  4.496991e+001  1.218565e+002  2.185652e+001
      vertex  4.698463e+001  1.171010e+002  1.000000e+002
      vertex  4.791960e+001  1.142728e+002  1.427276e+001
    endloop
  endfacet
  facet normal  9.659238e-001  2.588186e-001  1.995954e-003
    outer loop
      vertex  4.791960e+001  1.142728e+002  1.427276e+001
      vertex  4.698463e+001  1.171010e+002  1.000000e+002
      vertex  4.924039e+001  1.086824e+002  1.000000e+002
    endloop
  endfacet
  facet normal -9.977719e-001  6.671687e-002  0.000000e+000
    outer loop
      vertex -5.000000e+001  1.000000e+002  0.000000e+000
      vertex -5.000000e+001  1.000000e+002  1.000000e+002
      vertex -4.955489e+001  1.066568e+002  6.656821e+000
    endloop
  endfacet
  facet normal -9.961936e-001  8.715570e-002  1.465133e-003
    outer loop
      vertex -4.955489e+001  1.066568e+002  6.656821e+000
      vertex -5.000000e+001  1.000000e+002  1.000000e+002
      vertex -4.924039e+001  1.086824e+002  1.000000e+002
    endloop
  endfacet
  facet normal -9.781016e-001  2.081244e-001 -1.220900e-003
    outer loop
      vertex -4.955489e+001  1.066568e+002  6.656821e+000
      vertex -4.924039e+001  1.086824e+002  1.000000e+002
      vertex -4.800562e+001  1.139807e+002  1.398072e+001
    endloop
  endfacet
  facet normal -5.735742e-001  8.191481e-001  3.023098e-003
    outer loop
      vertex -2.500000e+001  1.433013e+002  1.000000e+002
      vertex -2.770964e+001  1.416194e+002  4.161942e+001
      vertex -3.213938e+001  1.383022e+002  1.000000e+002
    endloop
  endfacet
  facet normal -5.884377e-001  8.085415e-001  1.292635e-003
    outer loop
      vertex -3.213938e+001  1.383022e+002  1.000000e+002
      vertex -2.770964e+001  1.416194e+002  4.161942e+001
      vertex -3.102345e+001  1.392115e+002  3.921155e+001
    endloop
  endfacet
  facet normal -6.794146e-001  7.337530e-001 -1.496243e-003
    outer loop
      vertex -3.213938e+001  1.383022e+002  1.000000e+002
      vertex -3.102345e+001  1.392115e+002  3.921155e+001
      vertex -3.678247e+001  1.338681e+002  3.386812e+001
    endloop
  endfacet
  facet normal -4.226171e-001  9.063043e-001  2.702442e-003
    outer loop
      vertex -1.710101e+001  1.469846e+002  1.000000e+002
      vertex -1.919428e+001  1.461690e+002  4.616903e+001
      vertex -2.500000e+001  1.433013e+002  1.000000e+002
    endloop
  endfacet
  facet normal -4.341010e-001  9.008634e-001  1.174038e-003
    outer loop
      vertex -2.500000e+001  1.433013e+002  1.000000e+002
      vertex -1.919428e+001  1.461690e+002  4.616903e+001
      vertex -2.410549e+001  1.438055e+002  4.380554e+001
    endloop
  endfacet
  facet normal -5.183575e-001  8.551638e-001 -5.772552e-004
    outer loop
      vertex -2.500000e+001  1.433013e+002  1.000000e+002
      vertex -2.410549e+001  1.438055e+002  4.380554e+001
      vertex -2.770964e+001  1.416194e+002  4.161942e+001
    endloop
  endfacet
  facet normal -8.715552e-002  9.961913e-001  2.595430e-003
    outer loop
      vertex  3.061617e-015  1.500000e+002  1.000000e+002
      vertex -1.905139e+000  1.499637e+002  4.996369e+001
      vertex -8.682409e+000  1.492404e+002  1.000000e+002
    endloop
  endfacet
  facet normal -1.015034e-001  9.948351e-001  6.324440e-004
    outer loop
      vertex -8.682409e+000  1.492404e+002  1.000000e+002
      vertex -1.905139e+000  1.499637e+002  4.996369e+001
      vertex -8.218424e+000  1.493199e+002  4.931995e+001
    endloop
  endfacet
  facet normal -2.211805e-001  9.752327e-001 -4.939947e-004
    outer loop
      vertex -8.682409e+000  1.492404e+002  1.000000e+002
      vertex -8.218424e+000  1.493199e+002  4.931995e+001
      vertex -1.387307e+001  1.480368e+002  4.803684e+001
    endloop
  endfacet
  facet normal  8.715580e-002  9.961944e-001  8.056915e-004
    outer loop
      vertex  8.682409e+000  1.492404e+002  1.000000e+002
      vertex  8.192843e+000  1.493242e+002  4.932421e+001
      vertex  3.061617e-015  1.500000e+002  1.000000e+002
    endloop
  endfacet
  facet normal  1.276358e-001  9.917935e-001  7.408859e-003
    outer loop
      vertex  3.061617e-015  1.500000e+002  1.000000e+002
      vertex  8.192843e+000  1.493242e+002  4.932421e+001
      vertex  4.468983e+000  1.497999e+002  4.979988e+001
    endloop
  endfacet
  facet normal  2.564591e-002  9.996696e-001 -1.702023e-003
    outer loop
      vertex  3.061617e-015  1.500000e+002  1.000000e+002
      vertex  4.468983e+000  1.497999e+002  4.979988e+001
      vertex -1.905139e+000  1.499637e+002  4.996369e+001
    endloop
  endfacet
  facet normal  4.226187e-001  9.063076e-001  3.522682e-004
    outer loop
      vertex  2.500000e+001  1.433013e+002  1.000000e+002
      vertex  2.479615e+001  1.434183e+002  4.341833e+001
      vertex  1.710101e+001  1.469846e+002  1.000000e+002
    endloop
  endfacet
  facet normal  4.371465e-001  8.993861e-001  2.764320e-003
    outer loop
      vertex  1.710101e+001  1.469846e+002  1.000000e+002
      vertex  2.479615e+001  1.434183e+002  4.341833e+001
      vertex  1.871034e+001  1.463673e+002  4.636726e+001
    endloop
  endfacet
  facet normal  3.056642e-001  9.521377e-001 -1.788229e-003
    outer loop
      vertex  1.710101e+001  1.469846e+002  1.000000e+002
      vertex  1.871034e+001  1.463673e+002  4.636726e+001
      vertex  1.182808e+001  1.485808e+002  4.858082e+001
    endloop
  endfacet
  facet normal  7.071065e-001  7.071065e-001  9.126376e-004
    outer loop
      vertex  3.830222e+001  1.321394e+002  1.000000e+002
      vertex  3.780098e+001  1.327274e+002  3.272745e+001
      vertex  3.213938e+001  1.383022e+002  1.000000e+002
    endloop
  endfacet
  facet normal  7.298464e-001  6.835945e-001  4.774812e-003
    outer loop
      vertex  3.213938e+001  1.383022e+002  1.000000e+002
      vertex  3.780098e+001  1.327274e+002  3.272745e+001
      vertex  3.488061e+001  1.358238e+002  3.582378e+001
    endloop
  endfacet
  facet normal  6.512406e-001  7.588697e-001 -1.489837e-003
    outer loop
      vertex  3.213938e+001  1.383022e+002  1.000000e+002
      vertex  3.488061e+001  1.358238e+002  3.582378e+001
      vertex  3.019247e+001  1.398549e+002  3.985492e+001
    endloop
  endfacet
  facet normal  8.191515e-001  5.735764e-001  8.967457e-004
    outer loop
      vertex  4.330127e+001  1.250000e+002  1.000000e+002
      vertex  4.287209e+001  1.257290e+002  2.572905e+001
      vertex  3.830222e+001  1.321394e+002  1.000000e+002
    endloop
  endfacet
  facet normal  8.351844e-001  5.499560e-001  3.921916e-003
    outer loop
      vertex  3.830222e+001  1.321394e+002  1.000000e+002
      vertex  4.287209e+001  1.257290e+002  2.572905e+001
      vertex  4.038211e+001  1.294837e+002  2.948365e+001
    endloop
  endfacet
  facet normal  7.823147e-001  6.228833e-001 -3.839883e-004
    outer loop
      vertex  3.830222e+001  1.321394e+002  1.000000e+002
      vertex  4.038211e+001  1.294837e+002  2.948365e+001
      vertex  3.780098e+001  1.327274e+002  3.272745e+001
    endloop
  endfacet
  facet normal  9.961947e-001  8.715580e-002  -0.000000e+000
    outer loop
      vertex  5.000000e+001  1.000000e+002  1.000000e+002
      vertex  5.000000e+001  1.000000e+002  6.123234e-015
      vertex  4.924039e+001  1.086824e+002  1.000000e+002
    endloop
  endfacet
  facet normal  9.968762e-001  7.897644e-002  7.153421e-004
    outer loop
      vertex  4.924039e+001  1.086824e+002  1.000000e+002
      vertex  5.000000e+001  1.000000e+002  6.123234e-015
      vertex  4.936499e+001  1.079434e+002  7.943388e+000
    endloop
  endfacet
  facet normal  9.748002e-001  2.230793e-001 -4.713951e-004
    outer loop
      vertex  4.924039e+001  1.086824e+002  1.000000e+002
      vertex  4.936499e+001  1.079434e+002  7.943388e+000
      vertex  4.791960e+001  1.142728e+002  1.427276e+001
    endloop
  endfacet
  facet normal  9.659239e-001 -2.588186e-001  2.000898e-003
    outer loop
      vertex  4.924039e+001  9.131759e+001  1.000000e+002
      vertex  4.698463e+001  8.289899e+001  1.000000e+002
      vertex  4.792434e+001  8.574315e+001  1.425686e+001
    endloop
  endfacet
  facet normal  9.335088e-001 -3.585507e-001 -1.662532e-003
    outer loop
      vertex  4.521251e+001  7.864984e+001  2.135016e+001
      vertex  4.792434e+001  8.574315e+001  1.425686e+001
      vertex  4.698463e+001  8.289899e+001  1.000000e+002
    endloop
  endfacet
  facet normal  9.063053e-001 -4.226170e-001  2.411676e-003
    outer loop
      vertex  4.698463e+001  8.289899e+001  1.000000e+002
      vertex  4.330127e+001  7.500000e+001  1.000000e+002
      vertex  4.521251e+001  7.864984e+001  2.135016e+001
    endloop
  endfacet
  facet normal  8.670610e-001 -4.981976e-001 -2.049388e-003
    outer loop
      vertex  4.521251e+001  7.864984e+001  2.135016e+001
      vertex  4.330127e+001  7.500000e+001  1.000000e+002
      vertex  4.131453e+001  7.183779e+001  2.816221e+001
    endloop
  endfacet
  facet normal  8.191494e-001 -5.735743e-001  2.593642e-003
    outer loop
      vertex  4.131453e+001  7.183779e+001  2.816221e+001
      vertex  4.330127e+001  7.500000e+001  1.000000e+002
      vertex  3.830222e+001  6.786062e+001  1.000000e+002
    endloop
  endfacet
  facet normal  7.811114e-001 -6.243890e-001 -1.814633e-003
    outer loop
      vertex  4.131453e+001  7.183779e+001  2.816221e+001
      vertex  3.830222e+001  6.786062e+001  1.000000e+002
      vertex  3.666761e+001  6.600755e+001  3.399245e+001
    endloop
  endfacet
  facet normal  7.071049e-001 -7.071049e-001  2.340210e-003
    outer loop
      vertex  3.666761e+001  6.600755e+001  3.399245e+001
      vertex  3.830222e+001  6.786062e+001  1.000000e+002
      vertex  3.213938e+001  6.169778e+001  1.000000e+002
    endloop
  endfacet
  facet normal  3.283940e-001 -9.445398e-001 -1.403955e-003
    outer loop
      vertex  1.375489e+001  5.192919e+001  4.807081e+001
      vertex  1.907592e+001  5.378194e+001  4.621806e+001
      vertex  1.710101e+001  5.301537e+001  1.000000e+002
    endloop
  endfacet
  facet normal  2.588174e-001 -9.659199e-001  3.526487e-003
    outer loop
      vertex  1.710101e+001  5.301537e+001  1.000000e+002
      vertex  8.682409e+000  5.075961e+001  1.000000e+002
      vertex  1.375489e+001  5.192919e+001  4.807081e+001
    endloop
  endfacet
  facet normal -2.025598e-001 -9.792698e-001 -2.504810e-004
    outer loop
      vertex -1.194085e+001  5.144677e+001  4.855323e+001
      vertex -8.306114e+000  5.069474e+001  4.930526e+001
      vertex -8.682409e+000  5.075961e+001  1.000000e+002
    endloop
  endfacet
  facet normal -2.588174e-001 -9.659199e-001  3.490974e-003
    outer loop
      vertex -8.682409e+000  5.075961e+001  1.000000e+002
      vertex -1.710101e+001  5.301537e+001  1.000000e+002
      vertex -1.194085e+001  5.144677e+001  4.855323e+001
    endloop
  endfacet
  facet normal -3.078558e-001 -9.514312e-001 -1.869378e-003
    outer loop
      vertex -1.194085e+001  5.144677e+001  4.855323e+001
      vertex -1.710101e+001  5.301537e+001  1.000000e+002
      vertex -1.881897e+001  5.367672e+001  4.632328e+001
    endloop
  endfacet
  facet normal -9.063052e-001 -4.226170e-001  2.380900e-003
    outer loop
      vertex -4.330127e+001  7.500000e+001  1.000000e+002
      vertex -4.698463e+001  8.289899e+001  1.000000e+002
      vertex -4.505101e+001  7.831115e+001  2.168886e+001
    endloop
  endfacet
  facet normal -9.327723e-001 -3.604608e-001 -1.914024e-003
    outer loop
      vertex -4.505101e+001  7.831115e+001  2.168886e+001
      vertex -4.698463e+001  8.289899e+001  1.000000e+002
      vertex -4.797927e+001  8.592912e+001  1.407089e+001
    endloop
  endfacet
  facet normal -9.659238e-001 -2.588186e-001  2.053919e-003
    outer loop
      vertex -4.797927e+001  8.592912e+001  1.407089e+001
      vertex -4.698463e+001  8.289899e+001  1.000000e+002
      vertex -4.924039e+001  9.131759e+001  1.000000e+002
    endloop
  endfacet
  facet normal  9.975398e-001 -7.010131e-002  0.000000e+000
    outer loop
      vertex  5.000000e+001  1.000000e+002  6.123234e-015
      vertex  5.000000e+001  1.000000e+002  1.000000e+002
      vertex  4.950858e+001  9.300710e+001  6.992908e+000
    endloop
  endfacet
  facet normal  9.961939e-001 -8.715572e-002  1.289379e-003
    outer loop
      vertex  4.950858e+001  9.300710e+001  6.992908e+000
      vertex  5.000000e+001  1.000000e+002  1.000000e+002
      vertex  4.924039e+001  9.131759e+001  1.000000e+002
    endloop
  endfacet
  facet normal  9.768086e-001 -2.141116e-001 -1.072718e-003
    outer loop
      vertex  4.950858e+001  9.300710e+001  6.992908e+000
      vertex  4.924039e+001  9.131759e+001  1.000000e+002
      vertex  4.792434e+001  8.574315e+001  1.425686e+001
    endloop
  endfacet
  facet normal  5.735737e-001 -8.191487e-001  2.966403e-003
    outer loop
      vertex  2.500000e+001  5.669873e+001  1.000000e+002
      vertex  2.759110e+001  5.830191e+001  4.169809e+001
      vertex  3.213938e+001  6.169778e+001  1.000000e+002
    endloop
  endfacet
  facet normal  5.861387e-001 -8.102095e-001  1.465505e-003
    outer loop
      vertex  3.213938e+001  6.169778e+001  1.000000e+002
      vertex  2.759110e+001  5.830191e+001  4.169809e+001
      vertex  3.090437e+001  6.069453e+001  3.930547e+001
    endloop
  endfacet
  facet normal  6.770009e-001 -7.359804e-001 -1.610316e-003
    outer loop
      vertex  3.213938e+001  6.169778e+001  1.000000e+002
      vertex  3.090437e+001  6.069453e+001  3.930547e+001
      vertex  3.666761e+001  6.600755e+001  3.399245e+001
    endloop
  endfacet
  facet normal  4.226169e-001 -9.063048e-001  2.600956e-003
    outer loop
      vertex  1.710101e+001  5.301537e+001  1.000000e+002
      vertex  1.907592e+001  5.378194e+001  4.621806e+001
      vertex  2.500000e+001  5.669873e+001  1.000000e+002
    endloop
  endfacet
  facet normal  4.318197e-001 -9.019589e-001  1.351573e-003
    outer loop
      vertex  2.500000e+001  5.669873e+001  1.000000e+002
      vertex  1.907592e+001  5.378194e+001  4.621806e+001
      vertex  2.398954e+001  5.613086e+001  4.386914e+001
    endloop
  endfacet
  facet normal  5.159885e-001 -8.565953e-001 -6.225584e-004
    outer loop
      vertex  2.500000e+001  5.669873e+001  1.000000e+002
      vertex  2.398954e+001  5.613086e+001  4.386914e+001
      vertex  2.759110e+001  5.830191e+001  4.169809e+001
    endloop
  endfacet
  facet normal  8.715554e-002 -9.961916e-001  2.479530e-003
    outer loop
      vertex -9.184851e-015  5.000000e+001  1.000000e+002
      vertex  1.789556e+000  5.003204e+001  4.996796e+001
      vertex  8.682409e+000  5.075961e+001  1.000000e+002
    endloop
  endfacet
  facet normal  9.920970e-002 -9.950663e-001  8.024774e-004
    outer loop
      vertex  8.682409e+000  5.075961e+001  1.000000e+002
      vertex  1.789556e+000  5.003204e+001  4.996796e+001
      vertex  8.103523e+000  5.066104e+001  4.933896e+001
    endloop
  endfacet
  facet normal  2.188236e-001 -9.757643e-001 -6.018646e-004
    outer loop
      vertex  8.682409e+000  5.075961e+001  1.000000e+002
      vertex  8.103523e+000  5.066104e+001  4.933896e+001
      vertex  1.375489e+001  5.192919e+001  4.807081e+001
    endloop
  endfacet
  facet normal -8.715580e-002 -9.961945e-001  6.277923e-004
    outer loop
      vertex -8.682409e+000  5.075961e+001  1.000000e+002
      vertex -8.306114e+000  5.069474e+001  4.930526e+001
      vertex -9.184851e-015  5.000000e+001  1.000000e+002
    endloop
  endfacet
  facet normal -1.299496e-001 -9.914907e-001  7.703842e-003
    outer loop
      vertex -9.184851e-015  5.000000e+001  1.000000e+002
      vertex -8.306114e+000  5.069474e+001  4.930526e+001
      vertex -4.581535e+000  5.021035e+001  4.978965e+001
    endloop
  endfacet
  facet normal -2.793059e-002 -9.996086e-001 -1.639082e-003
    outer loop
      vertex -9.184851e-015  5.000000e+001  1.000000e+002
      vertex -4.581535e+000  5.021035e+001  4.978965e+001
      vertex  1.789556e+000  5.003204e+001  4.996796e+001
    endloop
  endfacet
  facet normal -4.394205e-001 -8.982764e-001  2.996346e-003
    outer loop
      vertex -1.881897e+001  5.367672e+001  4.632328e+001
      vertex -1.710101e+001  5.301537e+001  1.000000e+002
      vertex -2.490465e+001  5.664383e+001  4.335618e+001
    endloop
  endfacet
  facet normal -4.226183e-001 -9.063078e-001  1.671077e-004
    outer loop
      vertex -2.490465e+001  5.664383e+001  4.335618e+001
      vertex -1.710101e+001  5.301537e+001  1.000000e+002
      vertex -2.500000e+001  5.669873e+001  1.000000e+002
    endloop
  endfacet
  facet normal -5.531241e-001 -8.330989e-001 -1.235293e-004
    outer loop
      vertex -2.490465e+001  5.664383e+001  4.335618e+001
      vertex -2.500000e+001  5.669873e+001  1.000000e+002
      vertex -3.029747e+001  6.022484e+001  3.977516e+001
    endloop
  endfacet
  facet normal -5.735745e-001 -8.191497e-001  2.492039e-003
    outer loop
      vertex -3.029747e+001  6.022484e+001  3.977516e+001
      vertex -2.500000e+001  5.669873e+001  1.000000e+002
      vertex -3.213938e+001  6.169778e+001  1.000000e+002
    endloop
  endfacet
  facet normal -6.532980e-001 -7.570995e-001 -1.463803e-003
    outer loop
      vertex -3.029747e+001  6.022484e+001  3.977516e+001
      vertex -3.213938e+001  6.169778e+001  1.000000e+002
      vertex -3.497948e+001  6.427275e+001  3.572725e+001
    endloop
  endfacet
  facet normal -7.320354e-001 -6.812479e-001  5.054315e-003
    outer loop
      vertex -3.497948e+001  6.427275e+001  3.572725e+001
      vertex -3.213938e+001  6.169778e+001  1.000000e+002
      vertex -3.790646e+001  6.739478e+001  3.260522e+001
    endloop
  endfacet
  facet normal -7.071065e-001 -7.071065e-001  7.352381e-004
    outer loop
      vertex -3.790646e+001  6.739478e+001  3.260522e+001
      vertex -3.213938e+001  6.169778e+001  1.000000e+002
      vertex -3.830222e+001  6.786062e+001  1.000000e+002
    endloop
  endfacet
  facet normal -7.844921e-001 -6.201387e-001 -3.203337e-004
    outer loop
      vertex -3.790646e+001  6.739478e+001  3.260522e+001
      vertex -3.830222e+001  6.786062e+001  1.000000e+002
      vertex -4.049023e+001  7.066501e+001  2.933499e+001
    endloop
  endfacet
  facet normal -8.373510e-001 -5.466492e-001  4.232826e-003
    outer loop
      vertex -4.049023e+001  7.066501e+001  2.933499e+001
      vertex -3.830222e+001  6.786062e+001  1.000000e+002
      vertex -4.296688e+001  7.442956e+001  2.557044e+001
    endloop
  endfacet
  facet normal -8.191520e-001 -5.735762e-001  7.157602e-004
    outer loop
      vertex -4.296688e+001  7.442956e+001  2.557044e+001
      vertex -3.830222e+001  6.786062e+001  1.000000e+002
      vertex -4.330127e+001  7.500000e+001  1.000000e+002
    endloop
  endfacet
  facet normal -8.808970e-001 -4.733079e-001 -3.301189e-004
    outer loop
      vertex -4.296688e+001  7.442956e+001  2.557044e+001
      vertex -4.330127e+001  7.500000e+001  1.000000e+002
      vertex -4.505101e+001  7.831115e+001  2.168886e+001
    endloop
  endfacet
  facet normal -9.961947e-001 -8.715580e-002  0.000000e+000
    outer loop
      vertex -5.000000e+001  1.000000e+002  1.000000e+002
      vertex -5.000000e+001  1.000000e+002  0.000000e+000
      vertex -4.924039e+001  9.131759e+001  1.000000e+002
    endloop
  endfacet
  facet normal -9.971008e-001 -7.608667e-002  9.679506e-004
    outer loop
      vertex -4.924039e+001  9.131759e+001  1.000000e+002
      vertex -5.000000e+001  1.000000e+002  0.000000e+000
      vertex -4.940635e+001  9.231800e+001  7.682003e+000
    endloop
  endfacet
  facet normal -9.758184e-001 -2.185819e-001 -6.144710e-004
    outer loop
      vertex -4.924039e+001  9.131759e+001  1.000000e+002
      vertex -4.940635e+001  9.231800e+001  7.682003e+000
      vertex -4.797927e+001  8.592912e+001  1.407089e+001
    endloop
  endfacet
  facet normal  0.000000e+000  0.000000e+000  1.000000e+000
    outer loop
      vertex -8.682409e+000  1.492404e+002  1.000000e+002
      vertex  8.682409e+000  1.492404e+002  1.000000e+002
      vertex  3.061617e-015  1.500000e+002  1.000000e+002
    endloop
  endfacet
  facet normal  -0.000000e+000  0.000000e+000  1.000000e+000
    outer loop
      vertex  8.682409e+000  1.492404e+002  1.000000e+002
      vertex -8.682409e+000  1.492404e+002  1.000000e+002
      vertex  1.710101e+001  1.469846e+002  1.000000e+002
    endloop
  endfacet
  facet normal  0.000000e+000  0.000000e+000  1.000000e+000
    outer loop
      vertex  1.710101e+001  1.469846e+002  1.000000e+002
      vertex -8.682409e+000  1.492404e+002  1.000000e+002
      vertex -1.710101e+001  1.469846e+002  1.000000e+002
    endloop
  endfacet
  facet normal  -0.000000e+000  0.000000e+000  1.000000e+000
    outer loop
      vertex  1.710101e+001  1.469846e+002  1.000000e+002
      vertex -1.710101e+001  1.469846e+002  1.000000e+002
      vertex  2.500000e+001  1.433013e+002  1.000000e+002
    endloop
  endfacet
  facet normal  0.000000e+000  0.000000e+000  1.000000e+000
    outer loop
      vertex  2.500000e+001  1.433013e+002  1.000000e+002
      vertex -1.710101e+001  1.469846e+002  1.000000e+002
      vertex -2.500000e+001  1.433013e+002  1.000000e+002
    endloop
  endfacet
  facet normal  -0.000000e+000  0.000000e+000  1.000000e+000
    outer loop
      vertex  2.500000e+001  1.433013e+002  1.000000e+002
      vertex -2.500000e+001  1.433013e+002  1.000000e+002
      vertex  3.213938e+001  1.383022e+002  1.000000e+002
    endloop
  endfacet
  facet normal  0.000000e+000  0.000000e+000  1.000000e+000
    outer loop
      vertex  3.213938e+001  1.383022e+002  1.000000e+002
      vertex -2.500000e+001  1.433013e+002  1.000000e+002
      vertex -3.213938e+001  1.383022e+002  1.000000e+002
    endloop
  endfacet
  facet normal  -0.000000e+000  0.000000e+000  1.000000e+000
    outer loop
      vertex  3.213938e+001  1.383022e+002  1.000000e+002
      vertex -3.213938e+001  1.383022e+002  1.000000e+002
      vertex  3.830222e+001  1.321394e+002  1.000000e+002
    endloop
  endfacet
  facet normal  0.000000e+000  0.000000e+000  1.000000e+000
    outer loop
      vertex  3.830222e+001  1.321394e+002  1.000000e+002
      vertex -3.213938e+001  1.383022e+002  1.000000e+002
      vertex -3.830222e+001  1.321394e+002  1.000000e+002
    endloop
  endfacet
  facet normal  -0.000000e+000  0.000000e+000  1.000000e+000
    outer loop
      vertex  3.830222e+001  1.321394e+002  1.000000e+002
      vertex -3.830222e+001  1.321394e+002  1.000000e+002
      vertex  4.330127e+001  1.250000e+002  1.000000e+002
    endloop
  endfacet
  facet normal  0.000000e+000  0.000000e+000  1.000000e+000
    outer loop
      vertex  4.330127e+001  1.250000e+002  1.000000e+002
      vertex -3.830222e+001  1.321394e+002  1.000000e+002
      vertex -4.330127e+001  1.250000e+002  1.000000e+002
    endloop
  endfacet
  facet normal  -0.000000e+000  0.000000e+000  1.000000e+000
    outer loop
      vertex  4.330127e+001  1.250000e+002  1.000000e+002
      vertex -4.330127e+001  1.250000e+002  1.000000e+002
      vertex  4.698463e+001  1.171010e+002  1.000000e+002
    endloop
  endfacet
  facet normal  0.000000e+000  0.000000e+000  1.000000e+000
    outer loop
      vertex  4.698463e+001  1.171010e+002  1.000000e+002
      vertex -4.330127e+001  1.250000e+002  1.000000e+002
      vertex -4.698463e+001  1.171010e+002  1.000000e+002
    endloop
  endfacet
  facet normal  -0.000000e+000  0.000000e+000  9.999999e-001
    outer loop
      vertex  4.698463e+001  1.171010e+002  1.000000e+002
      vertex -4.698463e+001  1.171010e+002  1.000000e+002
      vertex  4.924039e+001  1.086824e+002  1.000000e+002
    endloop
  endfacet
  facet normal  0.000000e+000  0.000000e+000  1.000000e+000
    outer loop
      vertex  4.924039e+001  1.086824e+002  1.000000e+002
      vertex -4.698463e+001  1.171010e+002  1.000000e+002
      vertex -4.924039e+001  1.086824e+002  1.000000e+002
    endloop
  endfacet
  facet normal  -0.000000e+000  0.000000e+000  1.000000e+000
    outer loop
      vertex  4.924039e+001  1.086824e+002  1.000000e+002
      vertex -4.924039e+001  1.086824e+002  1.000000e+002
      vertex  5.000000e+001  1.000000e+002  1.000000e+002
    endloop
  endfacet
  facet normal  0.000000e+000  0.000000e+000  1.000000e+000
    outer loop
      vertex  5.000000e+001  1.000000e+002  1.000000e+002
      vertex -4.924039e+001  1.086824e+002  1.000000e+002
      vertex -5.000000e+001  1.000000e+002  1.000000e+002
    endloop
  endfacet
  facet normal  -0.000000e+000  0.000000e+000  1.000000e+000
    outer loop
      vertex  5.000000e+001  1.000000e+002  1.000000e+002
      vertex -5.000000e+001  1.000000e+002  1.000000e+002
      vertex  4.924039e+001  9.131759e+001  1.000000e+002
    endloop
  endfacet
  facet normal  0.000000e+000  0.000000e+000  1.000000e+000
    outer loop
      vertex  4.924039e+001  9.131759e+001  1.000000e+002
      vertex -5.000000e+001  1.000000e+002  1.000000e+002
      vertex -4.924039e+001  9.131759e+001  1.000000e+002
    endloop
  endfacet
  facet normal  -0.000000e+000  0.000000e+000  1.000000e+000
    outer loop
      vertex  4.924039e+001  9.131759e+001  1.000000e+002
      vertex -4.924039e+001  9.131759e+001  1.000000e+002
      vertex  4.698463e+001  8.289899e+001  1.000000e+002
    endloop
  endfacet
  facet normal  0.000000e+000  0.000000e+000  9.999999e-001
    outer loop
      vertex  4.698463e+001  8.289899e+001  1.000000e+002
      vertex -4.924039e+001  9.131759e+001  1.000000e+002
      vertex -4.698463e+001  8.289899e+001  1.000000e+002
    endloop
  endfacet
  facet normal  -0.000000e+000  0.000000e+000  1.000000e+000
    outer loop
      vertex  4.698463e+001  8.289899e+001  1.000000e+002
      vertex -4.698463e+001  8.289899e+001  1.000000e+002
      vertex  4.330127e+001  7.500000e+001  1.000000e+002
    endloop
  endfacet
  facet normal  0.000000e+000  0.000000e+000  1.000000e+000
    outer loop
      vertex  4.330127e+001  7.500000e+001  1.000000e+002
      vertex -4.698463e+001  8.289899e+001  1.000000e+002
      vertex -4.330127e+001  7.500000e+001  1.000000e+002
    endloop
  endfacet
  facet normal  -0.000000e+000  0.000000e+000  1.000000e+000
    outer loop
      vertex  4.330127e+001  7.500000e+001  1.000000e+002
      vertex -4.330127e+001  7.500000e+001  1.000000e+002
      vertex  3.830222e+001  6.786062e+001  1.000000e+002
    endloop
  endfacet
  facet normal  0.000000e+000  0.000000e+000  1.000000e+000
    outer loop
      vertex  3.830222e+001  6.786062e+001  1.000000e+002
      vertex -4.330127e+001  7.500000e+001  1.000000e+002
      vertex -3.830222e+001  6.786062e+001  1.000000e+002
    endloop
  endfacet
  facet normal  -0.000000e+000  0.000000e+000  1.000000e+000
    outer loop
      vertex  3.830222e+001  6.786062e+001  1.000000e+002
      vertex -3.830222e+001  6.786062e+001  1.000000e+002
      vertex  3.213938e+001  6.169778e+001  1.000000e+002
    endloop
  endfacet
  facet normal  0.000000e+000  0.000000e+000  1.000000e+000
    outer loop
      vertex  3.213938e+001  6.169778e+001  1.000000e+002
      vertex -3.830222e+001  6.786062e+001  1.000000e+002
      vertex -3.213938e+001  6.169778e+001  1.000000e+002
    endloop
  endfacet
  facet normal  -0.000000e+000  0.000000e+000  1.000000e+000
    outer loop
      vertex  3.213938e+001  6.169778e+001  1.000000e+002
      vertex -3.213938e+001  6.169778e+001  1.000000e+002
      vertex  2.500000e+001  5.669873e+001  1.000000e+002
    endloop
  endfacet
  facet normal  0.000000e+000  0.000000e+000  9.999999e-001
    outer loop
      vertex  2.500000e+001  5.669873e+001  1.000000e+002
      vertex -3.213938e+001  6.169778e+001  1.000000e+002
      vertex -2.500000e+001  5.669873e+001  1.000000e+002
    endloop
  endfacet
  facet normal  -0.000000e+000  0.000000e+000  9.999999e-001
    outer loop
      vertex  2.500000e+001  5.669873e+001  1.000000e+002
      vertex -2.500000e+001  5.669873e+001  1.000000e+002
      vertex  1.710101e+001  5.301537e+001  1.000000e+002
    endloop
  endfacet
  facet normal  0.000000e+000  0.000000e+000  1.000000e+000
    outer loop
      vertex  1.710101e+001  5.301537e+001  1.000000e+002
      vertex -2.500000e+001  5.669873e+001  1.000000e+002
      vertex -1.710101e+001  5.301537e+001  1.000000e+002
    endloop
  endfacet
  facet normal  -0.000000e+000  0.000000e+000  1.000000e+000
    outer loop
      vertex  1.710101e+001  5.301537e+001  1.000000e+002
      vertex -1.710101e+001  5.301537e+001  1.000000e+002
      vertex  8.682409e+000  5.075961e+001  1.000000e+002
    endloop
  endfacet
  facet normal  0.000000e+000  0.000000e+000  1.000000e+000
    outer loop
      vertex  8.682409e+000  5.075961e+001  1.000000e+002
      vertex -1.710101e+001  5.301537e+001  1.000000e+002
      vertex -8.682409e+000  5.075961e+001  1.000000e+002
    endloop
  endfacet
  facet normal  -0.000000e+000  0.000000e+000  1.000000e+000
    outer loop
      vertex  8.682409e+000  5.075961e+001  1.000000e+002
      vertex -8.682409e+000  5.075961e+001  1.000000e+002
      vertex -9.184851e-015  5.000000e+001  1.000000e+002
    endloop
  endfacet
  facet normal  0.000000e+000  1.000000e+000  0.000000e+000
    outer loop
      vertex  8.682409e+000  2.000000e+002  4.924039e+001
      vertex -8.682409e+000  2.000000e+002  4.924039e+001
      vertex -3.061617e-015  2.000000e+002  5.000000e+001
    endloop
  endfacet
  facet normal  0.000000e+000  1.000000e+000  0.000000e+000
    outer loop
      vertex -8.682409e+000  2.000000e+002  4.924039e+001
      vertex  8.682409e+000  2.000000e+002  4.924039e+001
      vertex -1.710101e+001  2.000000e+002  4.698463e+001
    endloop
  endfacet
  facet normal  0.000000e+000  1.000000e+000  0.000000e+000
    outer loop
      vertex -1.710101e+001  2.000000e+002  4.698463e+001
      vertex  8.682409e+000  2.000000e+002  4.924039e+001
      vertex  1.710101e+001  2.000000e+002  4.698463e+001
    endloop
  endfacet
  facet normal  0.000000e+000  1.000000e+000  0.000000e+000
    outer loop
      vertex -1.710101e+001  2.000000e+002  4.698463e+001
      vertex  1.710101e+001  2.000000e+002  4.698463e+001
      vertex -2.500000e+001  2.000000e+002  4.330127e+001
    endloop
  endfacet
  facet normal  0.000000e+000  9.999999e-001  0.000000e+000
    outer loop
      vertex -2.500000e+001  2.000000e+002  4.330127e+001
      vertex  1.710101e+001  2.000000e+002  4.698463e+001
      vertex  2.500000e+001  2.000000e+002  4.330127e+001
    endloop
  endfacet
  facet normal  0.000000e+000  9.999999e-001  0.000000e+000
    outer loop
      vertex -2.500000e+001  2.000000e+002  4.330127e+001
      vertex  2.500000e+001  2.000000e+002  4.330127e+001
      vertex -3.213938e+001  2.000000e+002  3.830222e+001
    endloop
  endfacet
  facet normal  0.000000e+000  1.000000e+000  0.000000e+000
    outer loop
      vertex -3.213938e+001  2.000000e+002  3.830222e+001
      vertex  2.500000e+001  2.000000e+002  4.330127e+001
      vertex  3.213938e+001  2.000000e+002  3.830222e+001
    endloop
  endfacet
  facet normal  0.000000e+000  1.000000e+000  0.000000e+000
    outer loop
      vertex -3.213938e+001  2.000000e+002  3.830222e+001
      vertex  3.213938e+001  2.000000e+002  3.830222e+001
      vertex -3.830222e+001  2.000000e+002  3.213938e+001
    endloop
  endfacet
  facet normal  0.000000e+000  1.000000e+000  0.000000e+000
    outer loop
      vertex -3.830222e+001  2.000000e+002  3.213938e+001
      vertex  3.213938e+001  2.000000e+002  3.830222e+001
      vertex  3.830222e+001  2.000000e+002  3.213938e+001
    endloop
  endfacet
  facet normal  0.000000e+000  1.000000e+000  0.000000e+000
    outer loop
      vertex -3.830222e+001  2.000000e+002  3.213938e+001
      vertex  3.830222e+001  2.000000e+002  3.213938e+001
      vertex -4.330127e+001  2.000000e+002  2.500000e+001
    endloop
  endfacet
  facet normal  0.000000e+000  1.000000e+000  0.000000e+000
    outer loop
      vertex -4.330127e+001  2.000000e+002  2.500000e+001
      vertex  3.830222e+001  2.000000e+002  3.213938e+001
      vertex  4.330127e+001  2.000000e+002  2.500000e+001
    endloop
  endfacet
  facet normal  0.000000e+000  1.000000e+000  0.000000e+000
    outer loop
      vertex -4.330127e+001  2.000000e+002  2.500000e+001
      vertex  4.330127e+001  2.000000e+002  2.500000e+001
      vertex -4.698463e+001  2.000000e+002  1.710101e+001
    endloop
  endfacet
  facet normal  0.000000e+000  1.000000e+000  0.000000e+000
    outer loop
      vertex -4.698463e+001  2.000000e+002  1.710101e+001
      vertex  4.330127e+001  2.000000e+002  2.500000e+001
      vertex  4.698463e+001  2.000000e+002  1.710101e+001
    endloop
  endfacet
  facet normal  0.000000e+000  1.000000e+000  0.000000e+000
    outer loop
      vertex -4.698463e+001  2.000000e+002  1.710101e+001
      vertex  4.698463e+001  2.000000e+002  1.710101e+001
      vertex -4.924039e+001  2.000000e+002  8.682409e+000
    endloop
  endfacet
  facet normal  0.000000e+000  1.000000e+000  0.000000e+000
    outer loop
      vertex -4.924039e+001  2.000000e+002  8.682409e+000
      vertex  4.698463e+001  2.000000e+002  1.710101e+001
      vertex  4.924039e+001  2.000000e+002  8.682409e+000
    endloop
  endfacet
  facet normal  0.000000e+000  1.000000e+000  0.000000e+000
    outer loop
      vertex -4.924039e+001  2.000000e+002  8.682409e+000
      vertex  4.924039e+001  2.000000e+002  8.682409e+000
      vertex -5.000000e+001  2.000000e+002  0.000000e+000
    endloop
  endfacet
  facet normal  0.000000e+000  1.000000e+000  0.000000e+000
    outer loop
      vertex -5.000000e+001  2.000000e+002  0.000000e+000
      vertex  4.924039e+001  2.000000e+002  8.682409e+000
      vertex  5.000000e+001  2.000000e+002  6.123234e-015
    endloop
  endfacet
  facet normal  0.000000e+000  1.000000e+000  0.000000e+000
    outer loop
      vertex -5.000000e+001  2.000000e+002  0.000000e+000
      vertex  5.000000e+001  2.000000e+002  6.123234e-015
      vertex -4.924039e+001  2.000000e+002 -8.682409e+000
    endloop
  endfacet
  facet normal  0.000000e+000  1.000000e+000  0.000000e+000
    outer loop
      vertex -4.924039e+001  2.000000e+002 -8.682409e+000
      vertex  5.000000e+001  2.000000e+002  6.123234e-015
      vertex  4.924039e+001  2.000000e+002 -8.682409e+000
    endloop
  endfacet
  facet normal  0.000000e+000  1.000000e+000  0.000000e+000
    outer loop
      vertex -4.924039e+001  2.000000e+002 -8.682409e+000
      vertex  4.924039e+001  2.000000e+002 -8.682409e+000
      vertex -4.698463e+001  2.000000e+002 -1.710101e+001
    endloop
  endfacet
  facet normal  0.000000e+000  1.000000e+000  0.000000e+000
    outer loop
      vertex -4.698463e+001  2.000000e+002 -1.710101e+001
      vertex  4.924039e+001  2.000000e+002 -8.682409e+000
      vertex  4.698463e+001  2.000000e+002 -1.710101e+001
    endloop
  endfacet
  facet normal  0.000000e+000  1.000000e+000  0.000000e+000
    outer loop
      vertex -4.698463e+001  2.000000e+002 -1.710101e+001
      vertex  4.698463e+001  2.000000e+002 -1.710101e+001
      vertex -4.330127e+001  2.000000e+002 -2.500000e+001
    endloop
  endfacet
  facet normal  0.000000e+000  1.000000e+000  0.000000e+000
    outer loop
      vertex -4.330127e+001  2.000000e+002 -2.500000e+001
      vertex  4.698463e+001  2.000000e+002 -1.710101e+001
      vertex  4.330127e+001  2.000000e+002 -2.500000e+001
    endloop
  endfacet
  facet normal  0.000000e+000  1.000000e+000  0.000000e+000
    outer loop
      vertex -4.330127e+001  2.000000e+002 -2.500000e+001
      vertex  4.330127e+001  2.000000e+002 -2.500000e+001
      vertex -3.830222e+001  2.000000e+002 -3.213938e+001
    endloop
  endfacet
  facet normal  0.000000e+000  1.000000e+000  0.000000e+000
    outer loop
      vertex -3.830222e+001  2.000000e+002 -3.213938e+001
      vertex  4.330127e+001  2.000000e+002 -2.500000e+001
      vertex  3.830222e+001  2.000000e+002 -3.213938e+001
    endloop
  endfacet
  facet normal  0.000000e+000  1.000000e+000  0.000000e+000
    outer loop
      vertex -3.830222e+001  2.000000e+002 -3.213938e+001
      vertex  3.830222e+001  2.000000e+002 -3.213938e+001
      vertex -3.213938e+001  2.000000e+002 -3.830222e+001
    endloop
  endfacet
  facet normal  0.000000e+000  1.000000e+000  0.000000e+000
    outer loop
      vertex -3.213938e+001  2.000000e+002 -3.830222e+001
      vertex  3.830222e+001  2.000000e+002 -3.213938e+001
      vertex  3.213938e+001  2.000000e+002 -3.830222e+001
    endloop
  endfacet
  facet normal  0.000000e+000  1.000000e+000  0.000000e+000
    outer loop
      vertex -3.213938e+001  2.000000e+002 -3.830222e+001
      vertex  3.213938e+001  2.000000e+002 -3.830222e+001
      vertex -2.500000e+001  2.000000e+002 -4.330127e+001
    endloop
  endfacet
  facet normal  0.000000e+000  9.999999e-001  0.000000e+000
    outer loop
      vertex -2.500000e+001  2.000000e+002 -4.330127e+001
      vertex  3.213938e+001  2.000000e+002 -3.830222e+001
      vertex  2.500000e+001  2.000000e+002 -4.330127e+001
    endloop
  endfacet
  facet normal  0.000000e+000  9.999999e-001  0.000000e+000
    outer loop
      vertex -2.500000e+001  2.000000e+002 -4.330127e+001
      vertex  2.500000e+001  2.000000e+002 -4.330127e+001
      vertex -1.710101e+001  2.000000e+002 -4.698463e+001
    endloop
  endfacet
  facet normal  0.000000e+000  1.000000e+000  0.000000e+000
    outer loop
      vertex -1.710101e+001  2.000000e+002 -4.698463e+001
      vertex  2.500000e+001  2.000000e+002 -4.330127e+001
      vertex  1.710101e+001  2.000000e+002 -4.698463e+001
    endloop
  endfacet
  facet normal  0.000000e+000  1.000000e+000  0.000000e+000
    outer loop
      vertex -1.710101e+001  2.000000e+002 -4.698463e+001
      vertex  1.710101e+001  2.000000e+002 -4.698463e+001
      vertex -8.682409e+000  2.000000e+002 -4.924039e+001
    endloop
  endfacet
  facet normal  0.000000e+000  1.000000e+000  0.000000e+000
    outer loop
      vertex -8.682409e+000  2.000000e+002 -4.924039e+001
      vertex  1.710101e+001  2.000000e+002 -4.698463e+001
      vertex  8.682409e+000  2.000000e+002 -4.924039e+001
    endloop
  endfacet
  facet normal  0.000000e+000  1.000000e+000  0.000000e+000
    outer loop
      vertex -8.682409e+000  2.000000e+002 -4.924039e+001
      vertex  8.682409e+000  2.000000e+002 -4.924039e+001
      vertex  9.184851e-015  2.000000e+002 -5.000000e+001
    endloop
  endfacet
  facet normal  0.000000e+000 -1.000000e+000  0.000000e+000
    outer loop
      vertex -3.061617e-015  0.000000e+000  5.000000e+001
      vertex -8.682409e+000  0.000000e+000  4.924039e+001
      vertex  8.682409e+000  0.000000e+000  4.924039e+001
    endloop
  endfacet
  facet normal  -0.000000e+000 -1.000000e+000  0.000000e+000
    outer loop
      vertex  9.184851e-015  0.000000e+000 -5.000000e+001
      vertex  8.682409e+000  0.000000e+000 -4.924039e+001
      vertex -8.682409e+000  0.000000e+000 -4.924039e+001
    endloop
  endfacet
  facet normal  0.000000e+000 -1.000000e+000  0.000000e+000
    outer loop
      vertex -8.682409e+000  0.000000e+000 -4.924039e+001
      vertex  8.682409e+000  0.000000e+000 -4.924039e+001
      vertex  1.710101e+001  0.000000e+000 -4.698463e+001
    endloop
  endfacet
  facet normal  -0.000000e+000 -1.000000e+000  0.000000e+000
    outer loop
      vertex -8.682409e+000  0.000000e+000 -4.924039e+001
      vertex  1.710101e+001  0.000000e+000 -4.698463e+001
      vertex -1.710101e+001  0.000000e+000 -4.698463e+001
    endloop
  endfacet
  facet normal  0.000000e+000 -1.000000e+000  0.000000e+000
    outer loop
      vertex -1.710101e+001  0.000000e+000 -4.698463e+001
      vertex  1.710101e+001  0.000000e+000 -4.698463e+001
      vertex  2.500000e+001  0.000000e+000 -4.330127e+001
    endloop
  endfacet
  facet normal  -0.000000e+000 -9.999999e-001  0.000000e+000
    outer loop
      vertex -1.710101e+001  0.000000e+000 -4.698463e+001
      vertex  2.500000e+001  0.000000e+000 -4.330127e+001
      vertex -2.500000e+001  0.000000e+000 -4.330127e+001
    endloop
  endfacet
  facet normal  0.000000e+000 -9.999999e-001  0.000000e+000
    outer loop
      vertex -2.500000e+001  0.000000e+000 -4.330127e+001
      vertex  2.500000e+001  0.000000e+000 -4.330127e+001
      vertex  3.213938e+001  0.000000e+000 -3.830222e+001
    endloop
  endfacet
  facet normal  -0.000000e+000 -1.000000e+000  0.000000e+000
    outer loop
      vertex -2.500000e+001  0.000000e+000 -4.330127e+001
      vertex  3.213938e+001  0.000000e+000 -3.830222e+001
      vertex -3.213938e+001  0.000000e+000 -3.830222e+001
    endloop
  endfacet
  facet normal  0.000000e+000 -1.000000e+000  0.000000e+000
    outer loop
      vertex -3.213938e+001  0.000000e+000 -3.830222e+001
      vertex  3.213938e+001  0.000000e+000 -3.830222e+001
      vertex  3.830222e+001  0.000000e+000 -3.213938e+001
    endloop
  endfacet
  facet normal  -0.000000e+000 -1.000000e+000  0.000000e+000
    outer loop
      vertex -3.213938e+001  0.000000e+000 -3.830222e+001
      vertex  3.830222e+001  0.000000e+000 -3.213938e+001
      vertex -3.830222e+001  0.000000e+000 -3.213938e+001
    endloop
  endfacet
  facet normal  0.000000e+000 -1.000000e+000  0.000000e+000
    outer loop
      vertex -3.830222e+001  0.000000e+000 -3.213938e+001
      vertex  3.830222e+001  0.000000e+000 -3.213938e+001
      vertex  4.330127e+001  0.000000e+000 -2.500000e+001
    endloop
  endfacet
  facet normal  -0.000000e+000 -1.000000e+000  0.000000e+000
    outer loop
      vertex -3.830222e+001  0.000000e+000 -3.213938e+001
      vertex  4.330127e+001  0.000000e+000 -2.500000e+001
      vertex -4.330127e+001  0.000000e+000 -2.500000e+001
    endloop
  endfacet
  facet normal  0.000000e+000 -1.000000e+000  0.000000e+000
    outer loop
      vertex -4.330127e+001  0.000000e+000 -2.500000e+001
      vertex  4.330127e+001  0.000000e+000 -2.500000e+001
      vertex  4.698463e+001  0.000000e+000 -1.710101e+001
    endloop
  endfacet
  facet normal  -0.000000e+000 -1.000000e+000  0.000000e+000
    outer loop
      vertex -4.330127e+001  0.000000e+000 -2.500000e+001
      vertex  4.698463e+001  0.000000e+000 -1.710101e+001
      vertex -4.698463e+001  0.000000e+000 -1.710101e+001
    endloop
  endfacet
  facet normal  0.000000e+000 -1.000000e+000  0.000000e+000
    outer loop
      vertex -4.698463e+001  0.000000e+000 -1.710101e+001
      vertex  4.698463e+001  0.000000e+000 -1.710101e+001
      vertex  4.924039e+001  0.000000e+000 -8.682409e+000
    endloop
  endfacet
  facet normal  -0.000000e+000 -1.000000e+000  0.000000e+000
    outer loop
      vertex -4.698463e+001  0.000000e+000 -1.710101e+001
      vertex  4.924039e+001  0.000000e+000 -8.682409e+000
      vertex -4.924039e+001  0.000000e+000 -8.682409e+000
    endloop
  endfacet
  facet normal  0.000000e+000 -1.000000e+000  0.000000e+000
    outer loop
      vertex -4.924039e+001  0.000000e+000 -8.682409e+000
      vertex  4.924039e+001  0.000000e+000 -8.682409e+000
      vertex  5.000000e+001  0.000000e+000  6.123234e-015
    endloop
  endfacet
  facet normal  0.000000e+000 -1.000000e+000  0.000000e+000
    outer loop
      vertex -4.924039e+001  0.000000e+000 -8.682409e+000
      vertex  5.000000e+001  0.000000e+000  6.123234e-015
      vertex -5.000000e+001  0.000000e+000  0.000000e+000
    endloop
  endfacet
  facet normal  0.000000e+000 -1.000000e+000  0.000000e+000
    outer loop
      vertex -5.000000e+001  0.000000e+000  0.000000e+000
      vertex  5.000000e+001  0.000000e+000  6.123234e-015
      vertex  4.924039e+001  0.000000e+000  8.682409e+000
    endloop
  endfacet
  facet normal  -0.000000e+000 -1.000000e+000  0.000000e+000
    outer loop
      vertex -5.000000e+001  0.000000e+000  0.000000e+000
      vertex  4.924039e+001  0.000000e+000  8.682409e+000
      vertex -4.924039e+001  0.000000e+000  8.682409e+000
    endloop
  endfacet
  facet normal  0.000000e+000 -1.000000e+000  0.000000e+000
    outer loop
      vertex -4.924039e+001  0.000000e+000  8.682409e+000
      vertex  4.924039e+001  0.000000e+000  8.682409e+000
      vertex  4.698463e+001  0.000000e+000  1.710101e+001
    endloop
  endfacet
  facet normal  -0.000000e+000 -1.000000e+000  0.000000e+000
    outer loop
      vertex -4.924039e+001  0.000000e+000  8.682409e+000
      vertex  4.698463e+001  0.000000e+000  1.710101e+001
      vertex -4.698463e+001  0.000000e+000  1.710101e+001
    endloop
  endfacet
  facet normal  0.000000e+000 -1.000000e+000  0.000000e+000
    outer loop
      vertex -4.698463e+001  0.000000e+000  1.710101e+001
      vertex  4.698463e+001  0.000000e+000  1.710101e+001
      vertex  4.330127e+001  0.000000e+000  2.500000e+001
    endloop
  endfacet
  facet normal  -0.000000e+000 -1.000000e+000  0.000000e+000
    outer loop
      vertex -4.698463e+001  0.000000e+000  1.710101e+001
      vertex  4.330127e+001  0.000000e+000  2.500000e+001
      vertex -4.330127e+001  0.000000e+000  2.500000e+001
    endloop
  endfacet
  facet normal  0.000000e+000 -1.000000e+000  0.000000e+000
    outer loop
      vertex -4.330127e+001  0.000000e+000  2.500000e+001
      vertex  4.330127e+001  0.000000e+000  2.500000e+001
      vertex  3.830222e+001  0.000000e+000  3.213938e+001
    endloop
  endfacet
  facet normal  -0.000000e+000 -1.000000e+000  0.000000e+000
    outer loop
      vertex -4.330127e+001  0.000000e+000  2.500000e+001
      vertex  3.830222e+001  0.000000e+000  3.213938e+001
      vertex -3.830222e+001  0.000000e+000  3.213938e+001
    endloop
  endfacet
  facet normal  0.000000e+000 -1.000000e+000  0.000000e+000
    outer loop
      vertex -3.830222e+001  0.000000e+000  3.213938e+001
      vertex  3.830222e+001  0.000000e+000  3.213938e+001
      vertex  3.213938e+001  0.000000e+000  3.830222e+001
    endloop
  endfacet
  facet normal  -0.000000e+000 -1.000000e+000  0.000000e+000
    outer loop
      vertex -3.830222e+001  0.000000e+000  3.213938e+001
      vertex  3.213938e+001  0.000000e+000  3.830222e+001
      vertex -3.213938e+001  0.000000e+000  3.830222e+001
    endloop
  endfacet
  facet normal  0.000000e+000 -1.000000e+000  0.000000e+000
    outer loop
      vertex -3.213938e+001  0.000000e+000  3.830222e+001
      vertex  3.213938e+001  0.000000e+000  3.830222e+001
      vertex  2.500000e+001  0.000000e+000  4.330127e+001
    endloop
  endfacet
  facet normal  -0.000000e+000 -9.999999e-001  0.000000e+000
    outer loop
      vertex -3.213938e+001  0.000000e+000  3.830222e+001
      vertex  2.500000e+001  0.000000e+000  4.330127e+001
      vertex -2.500000e+001  0.000000e+000  4.330127e+001
    endloop
  endfacet
  facet normal  0.000000e+000 -9.999999e-001  0.000000e+000
    outer loop
      vertex -2.500000e+001  0.000000e+000  4.330127e+001
      vertex  2.500000e+001  0.000000e+000  4.330127e+001
      vertex  1.710101e+001  0.000000e+000  4.698463e+001
    endloop
  endfacet
  facet normal  -0.000000e+000 -1.000000e+000  0.000000e+000
    outer loop
      vertex -2.500000e+001  0.000000e+000  4.330127e+001
      vertex  1.710101e+001  0.000000e+000  4.698463e+001
      vertex -1.710101e+001  0.000000e+000  4.698463e+001
    endloop
  endfacet
  facet normal  0.000000e+000 -1.000000e+000  0.000000e+000
    outer loop
      vertex -1.710101e+001  0.000000e+000  4.698463e+001
      vertex  1.710101e+001  0.000000e+000  4.698463e+001
      vertex  8.682409e+000  0.000000e+000  4.924039e+001
    endloop
  endfacet
  facet normal  -0.000000e+000 -1.000000e+000  0.000000e+000
    outer loop
      vertex -1.710101e+001  0.000000e+000  4.698463e+001
      vertex  8.682409e+000  0.000000e+000  4.924039e+001
      vertex -8.682409e+000  0.000000e+000  4.924039e+001
    endloop
  endfacet
endsolid CATIA STL
