DBRep_DrawableShape

CASCADE Topology V3, (c) Open Cascade
Locations 0
Curve2ds 24
1 1475 -900 0 1 
1 -50 900 0 -1 
1 1475 900 -1 0 
1 50 -1475 0 1 
1 -1475 900 0 -1 
1 50 -900 0 1 
1 -1475 -900 1 0 
1 -50 1475 0 -1 
1 -50 -900 1 0 
8 0 100
1 50 -1475 -1 -0 
1 50 -900 0 1 
8 0 1800
1 1475 900 -0 -1 
1 50 900 -1 0 
8 0 100
1 50 -1475 -1 -0 
1 50 1475 -1 0 
8 0 100
1 50 -900 -1 -0 
1 -50 1475 0 -1 
8 0 2950
1 -1475 900 1 -0 
1 50 900 -1 0 
8 0 100
1 -50 1475 1 -0 
1 -50 900 0 -1 
8 0 1800
1 -1475 -900 -0 1 
1 50 -1475 0 1 
8 0 2950
1 1475 -900 -1 -0 
Curves 12
1 19000 28700 8700 0 1 0 
1 19000 30500 8700 1 0 0 
1 21950 30500 8700 0 -1 0 
1 21950 28700 8700 -1 0 0 
1 19000 30500 8700 0 0 -1 
1 19000 30500 8600 0 -1 0 
1 19000 28700 8600 0 0 1 
1 21950 30500 8700 0 0 -1 
1 21950 30500 8600 -1 0 0 
1 21950 28700 8700 0 0 -1 
1 21950 28700 8600 0 1 0 
1 19000 28700 8600 1 0 0 
Polygon3D 0
PolygonOnTriangulations 0
Surfaces 6
1 20475 29600 8700 -0 -0 -1 -1 0 0 0 1 -0 
1 19000 29600 8650 -1 -0 -0 0 0 -1 0 -1 0 
1 20475 30500 8650 0 1 0 0 -0 1 1 0 -0 
1 21950 29600 8650 1 0 0 -0 0 1 0 -1 0 
1 20475 28700 8650 -0 -1 -0 0 0 -1 1 -0 0 
1 20475 29600 8600 -0 -0 -1 -1 0 0 0 1 -0 
Triangulations 0

TShapes 34
Ve
1e-07
19000 28700 8700
0 0

0101101
*
Ve
1e-07
19000 30500 8700
0 0

0101101
*
Ed
 1e-07 1 1 0
1  1 0 0 1800
2  1 1 0 0 1800
2  2 2 0 0 1800
4 C0 1 0 2 0
0

0101000
+34 0 -33 0 *
Ve
1e-07
21950 30500 8700
0 0

0101101
*
Ed
 1e-07 1 1 0
1  2 0 0 2950
2  3 1 0 0 2950
2  4 3 0 0 2950
4 C0 1 0 3 0
0

0101000
+33 0 -31 0 *
Ve
1e-07
21950 28700 8700
0 0

0101101
*
Ed
 1e-07 1 1 0
1  3 0 0 1800
2  5 1 0 0 1800
2  6 4 0 0 1800
4 C0 1 0 4 0
0

0101000
+31 0 -29 0 *
Ed
 1e-07 1 1 0
1  4 0 0 2950
2  7 1 0 0 2950
2  8 5 0 0 2950
4 C0 1 0 5 0
0

0101000
+29 0 -34 0 *
Wi

0101100
+32 0 +30 0 +28 0 +27 0 *
Fa
0  1e-07 1 0

0111000
+26 0 *
Ve
1e-07
19000 30500 8600
0 0

0101101
*
Ed
 1e-07 1 1 0
1  5 0 0 100
2  9 2 0 0 100
2  10 3 0 0 100
4 C0 2 0 3 0
0

0101000
+33 0 -24 0 *
Ve
1e-07
19000 28700 8600
0 0

0101101
*
Ed
 1e-07 1 1 0
1  6 0 0 1800
2  11 2 0 0 1800
2  12 6 0 0 1800
4 C0 2 0 6 0
0

0101000
+24 0 -22 0 *
Ed
 1e-07 1 1 0
1  7 0 0 100
2  13 2 0 0 100
2  14 5 0 0 100
4 C0 2 0 5 0
0

0101000
+22 0 -34 0 *
Wi

0101100
+32 0 +23 0 +21 0 +20 0 *
Fa
0  1e-07 2 0

0111000
+19 0 *
Ve
1e-07
21950 30500 8600
0 0

0101101
*
Ed
 1e-07 1 1 0
1  8 0 0 100
2  15 3 0 0 100
2  16 4 0 0 100
4 C0 3 0 4 0
0

0101000
+31 0 -17 0 *
Ed
 1e-07 1 1 0
1  9 0 0 2950
2  17 3 0 0 2950
2  18 6 0 0 2950
4 C0 3 0 6 0
0

0101000
+17 0 -24 0 *
Wi

0101100
+30 0 +16 0 +15 0 -23 0 *
Fa
0  1e-07 3 0

0111000
+14 0 *
Ve
1e-07
21950 28700 8600
0 0

0101101
*
Ed
 1e-07 1 1 0
1  10 0 0 100
2  19 4 0 0 100
2  20 5 0 0 100
4 C0 4 0 5 0
0

0101000
+29 0 -12 0 *
Ed
 1e-07 1 1 0
1  11 0 0 1800
2  21 4 0 0 1800
2  22 6 0 0 1800
4 C0 4 0 6 0
0

0101000
+12 0 -17 0 *
Wi

0101100
+28 0 +11 0 +10 0 -16 0 *
Fa
0  1e-07 4 0

0111000
+9 0 *
Ed
 1e-07 1 1 0
1  12 0 0 2950
2  23 5 0 0 2950
2  24 6 0 0 2950
4 C0 5 0 6 0
0

0101000
+22 0 -12 0 *
Wi

0101100
+27 0 -20 0 +7 0 -11 0 *
Fa
0  1e-07 5 0

0111000
+6 0 *
Wi

0101100
-21 0 -15 0 -10 0 -7 0 *
Fa
0  1e-07 6 0

0111000
+4 0 *
Sh

0101100
+25 0 -18 0 -13 0 -8 0 -5 0 -3 0 *
So

1100000
+2 0 *

+1 0 