DBRep_DrawableShape

CASCADE Topology V3, (c) Open Cascade
Locations 1
1
              1               0              -0             244 
              0              -1 1.22464679914735e-16              33 
              0 -1.22464679914735e-16              -1 470.590393066406 
Curve2ds 16
1 3.1415926535897931 -5.1846927548410793e-33 0 1 
1 3.1415926535897931 -5.1846927548410793e-33 0 1 
1 9.4247779607693793 0 -1 0 
1 6.2831853071795862 0 0 1 
1 0 0 0 1 
1 3.1415926535897931 50.34689662730198 1 0 
1 3.1415926535897931 50.000000000002302 1 0 
1 9.4247779607693793 150 -1 0 
1 3.1415926535897931 150 -1 0 
1 3.1415926535897931 0 -1 0 
1 3.1415926535897931 0 0 1 
1 3.1415926535897931 0 0 1 
1 6.2831853071795862 0 0 1 
1 0 0 0 1 
1 -3.1415926535897931 50.000000000002302 1 0 
1 -3.1415926535897931 50.34689662730198 1 0 
Curves 10
1 0.099999999999898795 1.224646799146114e-17 150 0.11718696474333758 1.4351264127472219e-17 -0.99310987070627987 
2 0 0 150 0 0 1 1 0 -0 -0 1 0 0.099999999999898795
1 -0.099999999999898795 0 150 -0.11718696474333758 0 -0.99310987070627987 
2 0 0 99.999999999997698 0 0 -1 1 0 0 0 -1 0 6
2 0 0 0 0 0 1 1 0 -0 -0 1 0 6
2 0 0 0 0 0 1 1 0 -0 -0 1 0 6
2 0 0 150 0 0 1 1 0 -0 -0 1 0 0.099999999999898795
1 6 7.3478807948841197e-16 150 0 0 -1 
1 -6 0 150 0 0 -1 
2 0 0 99.999999999997698 0 0 -1 1 0 0 0 -1 0 6
Polygon3D 0
PolygonOnTriangulations 20
2 1 2 
p 0.1 1 5.18469275484108e-33 50.346896627302 
2 1 15 
p 0.1 1 5.18469275484108e-33 50.346896627302 
14 3 4 5 6 7 8 9 10 11 12 13 14 15 1 
p 0.1 1 3.14159265358979 3.38325362694285 3.62491460029591 3.86657557364898 4.10823654700204 4.3498975203551 4.59155849370816 4.83321946706122 5.07488044041428 5.31654141376734 5.5582023871204 5.79986336047346 6.04152433382652 6.28318530717959 
14 1 2 3 4 5 6 7 8 9 10 11 12 13 14 
p 0.1 1 3.14159265358979 3.38325362694285 3.62491460029591 3.86657557364898 4.10823654700204 4.3498975203551 4.59155849370816 4.83321946706122 5.07488044041428 5.31654141376734 5.5582023871204 5.79986336047346 6.04152433382652 6.28318530717959 
2 3 16 
p 0.1 1 0 50.346896627302 
2 14 16 
p 0.1 1 0 50.346896627302 
14 2 17 18 19 20 21 22 23 24 25 26 27 28 16 
p 0.1 1 0 0.241660973353061 0.483321946706122 0.724982920059183 0.966643893412244 1.2083048667653 1.44996584011837 1.69162681347143 1.93328778682449 2.17494876017755 2.41660973353061 2.65827070688367 2.89993168023673 3.14159265358979 
14 1 3 4 5 6 7 8 9 10 11 12 13 14 15 
p 0.1 1 0 0.241660973353061 0.483321946706122 0.724982920059183 0.966643893412244 1.2083048667653 1.44996584011837 1.69162681347143 1.93328778682449 2.17494876017755 2.41660973353061 2.65827070688367 2.89993168023673 3.14159265358979 
14 16 17 18 19 20 21 22 23 24 25 26 27 28 2 
p 0.1 1 3.14159265358979 3.38325362694285 3.62491460029591 3.86657557364898 4.10823654700204 4.3498975203551 4.59155849370816 4.83321946706122 5.07488044041428 5.31654141376734 5.5582023871204 5.79986336047346 6.04152433382652 6.28318530717959 
14 14 15 16 17 18 19 20 21 22 23 24 25 26 1 
p 0.1 1 3.14159265358979 3.38325362694285 3.62491460029591 3.86657557364898 4.10823654700204 4.3498975203551 4.59155849370816 4.83321946706122 5.07488044041428 5.31654141376734 5.5582023871204 5.79986336047346 6.04152433382652 6.28318530717959 
14 15 16 17 18 19 20 21 22 23 24 25 26 27 28 
p 0.1 1 0 0.241660973353061 0.483321946706122 0.724982920059183 0.966643893412244 1.2083048667653 1.44996584011837 1.69162681347143 1.93328778682449 2.17494876017755 2.41660973353061 2.65827070688367 2.89993168023673 3.14159265358979 
14 1 2 3 4 5 6 7 8 9 10 11 12 13 14 
p 0.1 1 0 0.241660973353061 0.483321946706122 0.724982920059183 0.966643893412244 1.2083048667653 1.44996584011837 1.69162681347143 1.93328778682449 2.17494876017755 2.41660973353061 2.65827070688367 2.89993168023673 3.14159265358979 
14 1 2 3 4 5 6 7 8 9 10 11 12 13 14 
p 0.1 1 0 0.241660973353061 0.483321946706122 0.724982920059183 0.966643893412244 1.2083048667653 1.44996584011837 1.69162681347143 1.93328778682449 2.17494876017755 2.41660973353061 2.65827070688367 2.89993168023673 3.14159265358979 
14 14 15 16 17 18 19 20 21 22 23 24 25 26 1 
p 0.1 1 0 0.241660973353061 0.483321946706122 0.724982920059183 0.966643893412244 1.2083048667653 1.44996584011837 1.69162681347143 1.93328778682449 2.17494876017755 2.41660973353061 2.65827070688367 2.89993168023673 3.14159265358979 
2 1 2 
p 0.1 1 50.0000000000023 150 
2 14 15 
p 0.1 1 50.0000000000023 150 
2 15 16 
p 0.1 1 50.0000000000023 150 
2 1 28 
p 0.1 1 50.0000000000023 150 
14 16 17 18 19 20 21 22 23 24 25 26 27 28 15 
p 0.1 1 3.14159265358979 3.38325362694285 3.62491460029591 3.86657557364898 4.10823654700204 4.3498975203551 4.59155849370816 4.83321946706122 5.07488044041428 5.31654141376734 5.5582023871204 5.79986336047346 6.04152433382652 6.28318530717959 
14 1 2 3 4 5 6 7 8 9 10 11 12 13 14 
p 0.1 1 3.14159265358979 3.38325362694285 3.62491460029591 3.86657557364898 4.10823654700204 4.3498975203551 4.59155849370816 4.83321946706122 5.07488044041428 5.31654141376734 5.5582023871204 5.79986336047346 6.04152433382652 6.28318530717959 
Surfaces 6
3 0 0 150 0 0 -1 -1 0 0 0 1 0 0.099999999999898795
0.11745685316268613
3 0 0 150 0 0 -1 -1 0 0 0 1 0 0.099999999999898795
0.11745685316268613
1 0 0 150 0 0 1 1 0 -0 -0 1 0 
2 0 0 150 0 0 -1 -1 0 0 0 1 0 6
1 0 0 0 0 0 1 1 0 -0 -0 1 0 
2 0 0 150 0 0 -1 -1 0 0 0 1 0 6
Triangulations 6
196 362 1 0 0.265196124877192
0.0999999999998988 3.73517273739937e-16 150 6 7.34788079488412e-16 99.9999999999977 -0.0999999999998988 0 150 -0.0970941817425069 -0.0239315664287315 150 -0.0885456025652314 -0.0464723172043298 150 -0.0748510748170344 -0.0663122658240124 150 -0.0568064746730582 -0.0822983865892823 150 -0.0354604887042178 -0.0935016242684468 150 -0.0120536680255202 -0.0992708874097049 150 0.0120536680255199 -0.099270887409705 150 0.0354604887042175 -0.0935016242684469 150 0.0568064746730579 -0.0822983865892825 150 0.0748510748170342 -0.0663122658240126 150 0.0885456025652313 -0.04647231720433 150 0.0970941817425069 -0.0239315664287318 150 -6 0 99.9999999999977 5.82565090455631 -1.43589398572535 99.9999999999977 5.31273615391926 -2.78833903226261 99.9999999999977 4.49106448902661 -3.97873594944477 99.9999999999977 3.40838848038694 -4.93790319536194 99.9999999999977 2.12762932225521 -5.61009745611249 99.9999999999977 0.723220081531939 -5.95625324458832 99.9999999999977 -0.723220081531937 -5.95625324458832 99.9999999999977 -2.12762932225521 -5.61009745611249 99.9999999999977 -3.40838848038693 -4.93790319536194 99.9999999999977 -4.49106448902661 -3.97873594944477 99.9999999999977 -5.31273615391926 -2.78833903226261 99.9999999999977 -5.82565090455631 -1.43589398572535 99.9999999999977 0.345977737652903 -0.125925598224418 147.727272727273 0.28204363587555 -0.236662710839073 147.727272727273 0.184090909090861 -0.318854807756914 147.727272727273 0.59798621322731 -0.217649182116303 145.454545454545 0.0639341017773534 -0.362588309063491 147.727272727273 0.48748282743928 -0.409046660709557 145.454545454545 -0.0639341017773526 -0.362588309063491 147.727272727273 0.318181818181773 -0.551107075135473 145.454545454545 0.849994688801718 -0.309372766008189 143.181818181818 -0.18409090909086 -0.318854807756915 147.727272727273 0.110503385788031 -0.626695842825861 145.454545454545 0.692922019003009 -0.581430610580041 143.181818181818 -0.282043635875549 -0.236662710839074 147.727272727273 -0.11050338578803 -0.626695842825861 145.454545454545 0.452272727272684 -0.783359342514031 143.181818181818 1.10200316437612 -0.401096349900074 140.90909090909 -0.345977737652903 -0.125925598224419 147.727272727273 -0.318181818181772 -0.551107075135473 145.454545454545 0.157072669798709 -0.89080337658823 143.181818181818 0.898361210566739 -0.753814560450525 140.90909090909 -0.487482827439279 -0.409046660709558 145.454545454545 -0.157072669798707 -0.89080337658823 143.181818181818 0.586363636363596 -1.01561160989259 140.90909090909 1.35401163995053 -0.49281993379196 138.636363636363 -0.59798621322731 -0.217649182116305 145.454545454545 -0.452272727272683 -0.783359342514032 143.181818181818 0.203641953809387 -1.1549109103506 140.90909090909 1.10380040213047 -0.92619851032101 138.636363636363 -0.692922019003008 -0.581430610580043 143.181818181818 -0.203641953809384 -1.1549109103506 140.90909090909 0.720454545454508 -1.24786387727115 138.636363636363 1.60602011552494 -0.584543517683846 136.363636363636 -0.849994688801717 -0.309372766008191 143.181818181818 -0.586363636363594 -1.01561160989259 140.90909090909 0.250211237820065 -1.41901844411297 138.636363636363 1.3092395936942 -1.09858246019149 136.363636363636 -0.898361210566737 -0.753814560450527 140.90909090909 -0.250211237820062 -1.41901844411297 138.636363636363 0.85454545454542 -1.48011614464971 136.363636363636 1.85802859109935 -0.676267101575731 134.090909090908 -1.10200316437612 -0.401096349900077 140.90909090909 -0.720454545454505 -1.24786387727115 138.636363636363 0.296780521830743 -1.68312597787534 136.363636363636 1.51467878525793 -1.27096641006198 134.090909090908 -1.10380040213047 -0.926198510321012 138.636363636363 -0.296780521830739 -1.68312597787534 136.363636363636 0.988636363636331 -1.71236841202826 134.090909090908 2.11003706667375 -0.767990685467617 131.818181818181 -1.35401163995053 -0.492819933791964 138.636363636363 -0.854545454545416 -1.48011614464971 136.363636363636 0.343349805841421 -1.94723351163771 134.090909090908 1.72011797682166 -1.44335035993246 131.818181818181 -1.3092395936942 -1.0985824601915 136.363636363636 -0.343349805841416 -1.94723351163771 134.090909090908 1.12272727272724 -1.94462067940682 131.818181818181 2.36204554224816 -0.859714269359502 129.545454545454 -1.60602011552494 -0.58454351768385 136.363636363636 -0.988636363636327 -1.71236841202827 134.090909090908 0.389919089852098 -2.21134104540008 131.818181818181 1.92555716838539 -1.61573430980295 129.545454545454 -1.51467878525793 -1.27096641006198 134.090909090908 -0.389919089852094 -2.21134104540008 131.818181818181 1.25681818181815 -2.17687294678538 129.545454545454 2.61405401782257 -0.951437853251388 127.272727272726 -1.85802859109935 -0.676267101575736 134.090909090908 -1.12272727272724 -1.94462067940682 131.818181818181 0.436488373862776 -2.47544857916245 129.545454545454 2.13099635994912 -1.78811825967343 127.272727272726 -1.72011797682165 -1.44335035993247 131.818181818181 -0.436488373862771 -2.47544857916245 129.545454545454 1.39090909090907 -2.40912521416394 127.272727272726 2.86606249339698 -1.04316143714327 124.999999999999 -2.11003706667375 -0.767990685467622 131.818181818181 -1.25681818181815 -2.17687294678538 129.545454545454 0.483057657873454 -2.73955611292482 127.272727272726 2.33643555151285 -1.96050220954391 124.999999999999 -1.92555716838538 -1.61573430980295 129.545454545454 -0.483057657873448 -2.73955611292482 127.272727272726 1.52499999999998 -2.6413774815425 124.999999999999 3.11807096897138 -1.13488502103516 122.727272727271 -2.36204554224816 -0.859714269359508 129.545454545454 -1.39090909090906 -2.40912521416394 127.272727272726 0.529626941884132 -3.00366364668719 124.999999999999 2.54187474307658 -2.1328861594144 122.727272727271 -2.13099635994911 -1.78811825967343 127.272727272726 -0.529626941884126 -3.00366364668719 124.999999999999 1.65909090909089 -2.87362974892106 122.727272727271 3.37007944454579 -1.22660860492704 120.454545454544 -2.61405401782257 -0.951437853251395 127.272727272726 -1.52499999999997 -2.6413774815425 124.999999999999 0.57619622589481 -3.26777118044956 122.727272727271 2.74731393464031 -2.30527010928488 120.454545454544 -2.33643555151284 -1.96050220954392 124.999999999999 -0.576196225894803 -3.26777118044956 122.727272727271 1.7931818181818 -3.10588201629961 120.454545454544 3.6220879201202 -1.31833218881893 118.181818181817 -2.86606249339697 -1.04316143714328 124.999999999999 -1.65909090909088 -2.87362974892106 122.727272727271 0.622765509905488 -3.53187871421193 120.454545454544 2.95275312620404 -2.47765405915537 118.181818181817 -2.54187474307657 -2.1328861594144 122.727272727271 -0.62276550990548 -3.53187871421193 120.454545454544 1.92727272727271 -3.33813428367817 118.181818181817 3.87409639569461 -1.41005577271082 115.909090909089 -3.11807096897138 -1.13488502103517 122.727272727271 -1.79318181818179 -3.10588201629962 120.454545454544 0.669334793916165 -3.7959862479743 118.181818181817 3.15819231776777 -2.65003800902585 115.909090909089 -2.7473139346403 -2.30527010928489 120.454545454544 -0.669334793916157 -3.7959862479743 118.181818181817 2.06136363636362 -3.57038655105673 115.909090909089 4.12610487126901 -1.5017793566027 113.636363636362 -3.37007944454579 -1.22660860492705 120.454545454544 -1.92727272727271 -3.33813428367817 118.181818181817 0.715904077926843 -4.06009378173667 115.909090909089 3.36363150933149 -2.82242195889633 113.636363636362 -2.95275312620403 -2.47765405915537 118.181818181817 -0.715904077926835 -4.06009378173667 115.909090909089 2.19545454545454 -3.80263881843529 113.636363636362 4.37811334684342 -1.59350294049459 111.363636363635 -3.62208792012019 -1.31833218881894 118.181818181817 -2.06136363636362 -3.57038655105673 115.909090909089 0.762473361937521 -4.32420131549904 113.636363636362 3.56907070089522 -2.99480590876682 111.363636363635 -3.15819231776776 -2.65003800902586 115.909090909089 -0.762473361937512 -4.32420131549904 113.636363636362 2.32954545454545 -4.03489108581385 111.363636363635 4.63012182241783 -1.68522652438647 109.090909090907 -3.8740963956946 -1.41005577271083 115.909090909089 -2.19545454545453 -3.80263881843529 113.636363636362 0.809042645948199 -4.58830884926141 111.363636363635 3.77450989245895 -3.1671898586373 109.090909090907 -3.36363150933149 -2.82242195889634 113.636363636362 -0.809042645948189 -4.58830884926141 111.363636363635 2.46363636363636 -4.2671433531924 109.090909090907 4.88213029799223 -1.77695010827836 106.81818181818 -4.12610487126901 -1.50177935660271 113.636363636362 -2.32954545454544 -4.03489108581385 111.363636363635 0.855611929958877 -4.85241638302378 109.090909090907 3.97994908402268 -3.33957380850779 106.81818181818 -3.56907070089522 -2.99480590876683 111.363636363635 -0.855611929958866 -4.85241638302378 109.090909090907 2.59772727272727 -4.49939562057096 106.81818181818 5.13413877356664 -1.86867369217024 104.545454545452 -4.37811334684342 -1.5935029404946 111.363636363635 -2.46363636363635 -4.26714335319241 109.090909090907 0.902181213969555 -5.11652391678614 106.81818181818 4.18538827558641 -3.51195775837827 104.545454545452 -3.77450989245895 -3.16718985863731 109.090909090907 -0.902181213969544 -5.11652391678615 106.81818181818 2.73181818181818 -4.73164788794952 104.545454545452 5.38614724914105 -1.96039727606213 102.272727272725 -4.63012182241782 -1.68522652438648 109.090909090907 -2.59772727272726 -4.49939562057097 106.81818181818 0.948750497980233 -5.38063145054851 104.545454545452 4.39082746715014 -3.68434170824876 102.272727272725 -3.97994908402268 -3.3395738085078 106.81818181818 -0.948750497980221 -5.38063145054852 104.545454545452 2.86590909090909 -4.96390015532808 102.272727272725 -4.88213029799223 -1.77695010827837 106.81818181818 -2.73181818181817 -4.73164788794953 104.545454545452 0.995319781990911 -5.64473898431088 102.272727272725 -4.18538827558641 -3.51195775837828 104.545454545452 -0.995319781990898 -5.64473898431089 102.272727272725 -5.13413877356664 -1.86867369217026 104.545454545452 -2.86590909090908 -4.96390015532808 102.272727272725 -4.39082746715014 -3.68434170824877 102.272727272725 -5.38614724914104 -1.96039727606214 102.272727272725 3.14159265358979 0 3.14159265358979 50.346896627302 6.28318530717959 0 6.04152433382653 0 5.79986336047346 0 5.5582023871204 0 5.31654141376734 0 5.07488044041428 0 4.83321946706122 0 4.59155849370816 0 4.3498975203551 0 4.10823654700204 0 3.86657557364898 0 3.62491460029592 0 3.38325362694286 0 6.28318530717959 50.346896627302 3.38325362694285 50.346896627302 3.62491460029592 50.346896627302 3.86657557364898 50.346896627302 4.10823654700204 50.346896627302 4.3498975203551 50.346896627302 4.59155849370816 50.346896627302 4.83321946706122 50.346896627302 5.07488044041428 50.346896627302 5.31654141376734 50.346896627302 5.5582023871204 50.346896627302 5.79986336047346 50.346896627302 6.04152433382652 50.346896627302 3.49065850398866 2.288495301241 3.83972435438753 2.288495301241 4.18879020478639 2.288495301241 3.49065850398866 4.576990602482 4.53785605518526 2.288495301241 3.83972435438753 4.576990602482 4.88692190558412 2.288495301241 4.18879020478639 4.576990602482 3.49065850398866 6.865485903723 5.23598775598299 2.288495301241 4.53785605518526 4.576990602482 3.83972435438753 6.865485903723 5.58505360638185 2.288495301241 4.88692190558412 4.576990602482 4.18879020478639 6.865485903723 3.49065850398866 9.153981204964 5.93411945678072 2.288495301241 5.23598775598299 4.576990602482 4.53785605518526 6.865485903723 3.83972435438753 9.153981204964 5.58505360638185 4.576990602482 4.88692190558412 6.865485903723 4.18879020478639 9.153981204964 3.49065850398866 11.442476506205 5.93411945678072 4.576990602482 5.23598775598299 6.865485903723 4.53785605518526 9.153981204964 3.83972435438753 11.442476506205 5.58505360638185 6.865485903723 4.88692190558412 9.153981204964 4.18879020478639 11.442476506205 3.49065850398866 13.730971807446 5.93411945678072 6.865485903723 5.23598775598299 9.153981204964 4.53785605518526 11.442476506205 3.83972435438753 13.730971807446 5.58505360638185 9.153981204964 4.88692190558412 11.442476506205 4.18879020478639 13.730971807446 3.49065850398866 16.019467108687 5.93411945678072 9.153981204964 5.23598775598299 11.442476506205 4.53785605518526 13.730971807446 3.83972435438753 16.019467108687 5.58505360638185 11.442476506205 4.88692190558412 13.730971807446 4.18879020478639 16.019467108687 3.49065850398866 18.307962409928 5.93411945678072 11.442476506205 5.23598775598299 13.730971807446 4.53785605518526 16.019467108687 3.83972435438753 18.307962409928 5.58505360638185 13.730971807446 4.88692190558412 16.019467108687 4.18879020478639 18.307962409928 3.49065850398866 20.596457711169 5.93411945678072 13.730971807446 5.23598775598299 16.019467108687 4.53785605518526 18.307962409928 3.83972435438753 20.596457711169 5.58505360638185 16.019467108687 4.88692190558412 18.307962409928 4.18879020478639 20.596457711169 3.49065850398866 22.88495301241 5.93411945678072 16.019467108687 5.23598775598299 18.307962409928 4.53785605518526 20.596457711169 3.83972435438753 22.88495301241 5.58505360638185 18.307962409928 4.88692190558412 20.596457711169 4.18879020478639 22.88495301241 3.49065850398866 25.173448313651 5.93411945678072 18.307962409928 5.23598775598299 20.596457711169 4.53785605518526 22.88495301241 3.83972435438753 25.173448313651 5.58505360638185 20.596457711169 4.88692190558412 22.88495301241 4.18879020478639 25.173448313651 3.49065850398866 27.461943614892 5.93411945678072 20.596457711169 5.23598775598299 22.88495301241 4.53785605518526 25.173448313651 3.83972435438753 27.461943614892 5.58505360638185 22.88495301241 4.88692190558412 25.173448313651 4.18879020478639 27.461943614892 3.49065850398866 29.750438916133 5.93411945678072 22.88495301241 5.23598775598299 25.173448313651 4.53785605518526 27.461943614892 3.83972435438753 29.750438916133 5.58505360638185 25.173448313651 4.88692190558412 27.461943614892 4.18879020478639 29.750438916133 3.49065850398866 32.038934217374 5.93411945678072 25.173448313651 5.23598775598299 27.461943614892 4.53785605518526 29.750438916133 3.83972435438753 32.038934217374 5.58505360638185 27.461943614892 4.88692190558412 29.750438916133 4.18879020478639 32.038934217374 3.49065850398866 34.327429518615 5.93411945678072 27.461943614892 5.23598775598299 29.750438916133 4.53785605518526 32.038934217374 3.83972435438753 34.327429518615 5.58505360638185 29.750438916133 4.88692190558412 32.038934217374 4.18879020478639 34.327429518615 3.49065850398866 36.615924819856 5.93411945678072 29.750438916133 5.23598775598299 32.038934217374 4.53785605518526 34.327429518615 3.83972435438753 36.615924819856 5.58505360638185 32.038934217374 4.88692190558412 34.327429518615 4.18879020478639 36.615924819856 3.49065850398866 38.904420121097 5.93411945678072 32.038934217374 5.23598775598299 34.327429518615 4.53785605518526 36.615924819856 3.83972435438753 38.904420121097 5.58505360638185 34.327429518615 4.88692190558412 36.615924819856 4.18879020478639 38.904420121097 3.49065850398866 41.192915422338 5.93411945678072 34.327429518615 5.23598775598299 36.615924819856 4.53785605518526 38.904420121097 3.83972435438753 41.192915422338 5.58505360638185 36.615924819856 4.88692190558412 38.904420121097 4.18879020478639 41.192915422338 3.49065850398866 43.481410723579 5.93411945678072 36.615924819856 5.23598775598299 38.904420121097 4.53785605518526 41.192915422338 3.83972435438753 43.481410723579 5.58505360638185 38.904420121097 4.88692190558412 41.192915422338 4.18879020478639 43.481410723579 3.49065850398866 45.76990602482 5.93411945678072 38.904420121097 5.23598775598299 41.192915422338 4.53785605518526 43.481410723579 3.83972435438753 45.76990602482 5.58505360638185 41.192915422338 4.88692190558412 43.481410723579 4.18879020478639 45.76990602482 3.49065850398866 48.058401326061 5.93411945678072 41.192915422338 5.23598775598299 43.481410723579 4.53785605518526 45.76990602482 3.83972435438753 48.058401326061 5.58505360638185 43.481410723579 4.88692190558412 45.76990602482 4.18879020478639 48.058401326061 5.93411945678072 43.481410723579 5.23598775598299 45.76990602482 4.53785605518526 48.058401326061 5.58505360638185 45.76990602482 4.88692190558412 48.058401326061 5.93411945678072 45.76990602482 5.23598775598299 48.058401326061 5.58505360638185 48.058401326061 5.93411945678072 48.058401326061 29 15 14 29 1 15 30 13 12 30 14 13 30 29 14 31 12 11 31 30 12 32 1 29 33 11 10 33 31 11 34 32 29 34 29 30 35 9 8 35 10 9 35 33 10 36 30 31 36 34 30 37 1 32 37 32 34 38 8 7 38 35 8 39 31 33 39 36 31 39 33 35 40 37 34 41 6 5 41 7 6 41 38 7 42 39 35 42 35 38 43 40 34 43 34 36 44 1 37 45 4 3 45 5 4 45 41 5 46 42 38 47 36 39 47 39 42 47 43 36 48 44 37 48 37 40 49 46 38 49 38 41 50 47 42 51 43 47 51 48 40 51 40 43 52 1 44 53 41 45 53 49 41 53 45 3 54 46 49 54 42 46 54 50 42 55 51 47 56 48 51 56 52 44 56 44 48 57 54 49 58 50 54 58 47 50 58 55 47 59 56 51 60 52 56 60 1 52 61 53 3 61 57 49 61 49 53 62 58 54 63 51 55 63 59 51 63 55 58 64 60 56 65 54 57 65 62 54 66 63 58 67 64 56 67 56 59 68 60 64 68 1 60 69 57 61 69 61 3 69 65 57 70 58 62 70 62 65 70 66 58 71 67 59 71 59 63 71 63 66 72 68 64 73 70 65 74 71 66 75 64 67 75 72 64 76 1 68 77 69 3 77 65 69 77 73 65 78 66 70 78 74 66 79 67 71 79 75 67 80 68 72 80 76 68 81 70 73 81 78 70 82 74 78 82 79 71 82 71 74 83 80 72 83 72 75 84 1 76 85 81 73 85 77 3 85 73 77 86 82 78 87 75 79 87 83 75 88 76 80 88 80 83 88 84 76 89 81 85 89 86 78 89 78 81 90 79 82 90 87 79 90 82 86 91 88 83 91 83 87 92 1 84 93 89 85 93 85 3 94 90 86 95 91 87 96 84 88 96 92 84 97 86 89 97 94 86 98 87 90 98 95 87 99 88 91 99 91 95 99 96 88 100 2 1 100 1 92 101 93 3 101 89 93 101 97 89 102 90 94 102 98 90 103 99 95 104 100 92 104 92 96 104 96 99 105 94 97 105 97 101 105 102 94 106 98 102 106 95 98 106 103 95 107 104 99 108 2 100 109 101 3 109 105 101 110 106 102 111 99 103 111 107 99 112 100 104 112 108 100 113 102 105 113 110 102 114 103 106 114 111 103 115 104 107 115 112 104 116 2 108 117 113 105 117 109 3 117 105 109 118 114 106 118 106 110 119 115 107 119 107 111 120 108 112 120 112 115 120 116 108 121 110 113 121 113 117 121 118 110 122 119 111 122 111 114 123 120 115 124 2 116 125 3 16 125 117 3 125 121 117 126 114 118 126 122 114 127 115 119 127 123 115 128 124 116 128 120 123 128 116 120 129 118 121 129 126 118 130 119 122 130 127 119 131 128 123 132 2 124 133 121 125 133 125 16 133 129 121 134 130 122 134 122 126 135 123 127 135 131 123 136 132 124 136 124 128 137 134 126 137 126 129 137 129 133 138 127 130 138 135 127 139 136 128 139 128 131 140 2 132 141 133 16 141 137 133 142 130 134 142 138 130 143 131 135 143 139 131 144 132 136 144 140 132 145 134 137 145 142 134 145 137 141 146 135 138 146 138 142 146 143 135 147 144 136 147 136 139 148 2 140 149 145 141 149 141 16 150 146 142 151 147 139 151 139 143 152 148 140 152 140 144 153 150 142 153 145 149 153 142 145 154 143 146 154 146 150 154 151 143 155 144 147 155 152 144 156 2 148 157 149 16 157 153 149 158 154 150 159 155 147 159 147 151 160 156 148 160 148 152 161 150 153 161 158 150 162 159 151 162 151 154 163 152 155 163 160 152 164 2 156 165 157 16 165 153 157 165 161 153 166 154 158 166 162 154 167 163 155 167 155 159 168 164 156 168 156 160 169 158 161 169 166 158 170 167 159 170 159 162 170 162 166 171 160 163 171 168 160 172 2 164 173 165 16 173 161 165 173 169 161 174 170 166 175 171 163 175 163 167 176 172 164 176 164 168 177 166 169 177 174 166 178 167 170 178 175 167 178 170 174 179 176 168 179 168 171 180 17 2 180 18 17 180 2 172 181 173 16 181 169 173 181 177 169 182 178 174 183 179 171 183 171 175 184 180 172 184 19 18 184 20 19 184 172 176 184 18 180 185 182 174 185 174 177 186 178 182 186 183 175 186 175 178 187 184 176 187 21 20 187 20 184 187 176 179 188 177 181 188 181 16 188 185 177 189 186 182 190 21 187 190 179 183 190 22 21 190 187 179 191 189 182 191 182 185 192 190 183 192 23 22 192 24 23 192 183 186 192 22 190 193 191 185 193 185 188 193 188 16 194 25 24 194 186 189 194 192 186 194 24 192 195 26 25 195 27 26 195 189 191 195 194 189 195 25 194 196 28 27 196 16 28 196 27 195 196 191 193 196 193 16 196 195 191 
196 362 1 0 0.265196124877192
0.0999999999998988 3.73517273739937e-16 150 0.0970941817425069 0.0239315664287316 150 0.0885456025652314 0.0464723172043298 150 0.0748510748170344 0.0663122658240124 150 0.0568064746730581 0.0822983865892823 150 0.0354604887042177 0.0935016242684468 150 0.0120536680255201 0.0992708874097049 150 -0.0120536680255201 0.0992708874097049 150 -0.0354604887042177 0.0935016242684469 150 -0.0568064746730581 0.0822983865892824 150 -0.0748510748170343 0.0663122658240124 150 -0.0885456025652313 0.0464723172043299 150 -0.0970941817425069 0.0239315664287316 150 -0.0999999999998988 0 150 6 7.34788079488412e-16 99.9999999999977 -6 0 99.9999999999977 -5.82565090455631 1.43589398572534 99.9999999999977 -5.31273615391926 2.78833903226261 99.9999999999977 -4.49106448902661 3.97873594944477 99.9999999999977 -3.40838848038694 4.93790319536194 99.9999999999977 -2.12762932225522 5.61009745611249 99.9999999999977 -0.723220081531947 5.95625324458832 99.9999999999977 0.723220081531929 5.95625324458832 99.9999999999977 2.1276293222552 5.61009745611249 99.9999999999977 3.40838848038692 4.93790319536195 99.9999999999977 4.4910644890266 3.97873594944478 99.9999999999977 5.31273615391925 2.78833903226262 99.9999999999977 5.82565090455631 1.43589398572536 99.9999999999977 -0.345977737652903 0.125925598224418 147.727272727273 -0.28204363587555 0.236662710839073 147.727272727273 -0.184090909090861 0.318854807756914 147.727272727273 -0.59798621322731 0.217649182116303 145.454545454545 -0.0639341017773531 0.362588309063491 147.727272727273 -0.48748282743928 0.409046660709557 145.454545454545 0.0639341017773531 0.362588309063491 147.727272727273 -0.318181818181773 0.551107075135473 145.454545454545 -0.849994688801718 0.309372766008189 143.181818181818 0.184090909090861 0.318854807756914 147.727272727273 -0.110503385788031 0.626695842825861 145.454545454545 -0.692922019003009 0.581430610580041 143.181818181818 0.28204363587555 0.236662710839073 147.727272727273 0.110503385788031 0.626695842825861 145.454545454545 -0.452272727272684 0.783359342514031 143.181818181818 -1.10200316437613 0.401096349900075 140.90909090909 0.345977737652903 0.125925598224418 147.727272727273 0.318181818181772 0.551107075135473 145.454545454545 -0.157072669798708 0.89080337658823 143.181818181818 -0.898361210566739 0.753814560450526 140.90909090909 0.48748282743928 0.409046660709557 145.454545454545 0.157072669798708 0.89080337658823 143.181818181818 -0.586363636363596 1.01561160989259 140.90909090909 -1.35401163995053 0.49281993379196 138.636363636363 0.59798621322731 0.217649182116304 145.454545454545 0.452272727272684 0.783359342514031 143.181818181818 -0.203641953809386 1.1549109103506 140.90909090909 -1.10380040213047 0.92619851032101 138.636363636363 0.692922019003009 0.581430610580042 143.181818181818 0.203641953809386 1.1549109103506 140.90909090909 -0.720454545454507 1.24786387727115 138.636363636363 -1.60602011552494 0.584543517683846 136.363636363636 0.849994688801718 0.309372766008189 143.181818181818 0.586363636363595 1.01561160989259 140.90909090909 -0.250211237820064 1.41901844411297 138.636363636363 -1.3092395936942 1.09858246019149 136.363636363636 0.898361210566739 0.753814560450526 140.90909090909 0.250211237820064 1.41901844411297 138.636363636363 -0.854545454545419 1.48011614464971 136.363636363636 -1.85802859109935 0.676267101575731 134.090909090908 1.10200316437612 0.401096349900075 140.90909090909 0.720454545454507 1.24786387727115 138.636363636363 -0.296780521830741 1.68312597787534 136.363636363636 -1.51467878525793 1.27096641006198 134.090909090908 1.10380040213047 0.92619851032101 138.636363636363 0.296780521830741 1.68312597787534 136.363636363636 -0.988636363636331 1.71236841202826 134.090909090908 -2.11003706667375 0.767990685467617 131.818181818181 1.35401163995053 0.49281993379196 138.636363636363 0.854545454545419 1.48011614464971 136.363636363636 -0.343349805841419 1.94723351163771 134.090909090908 -1.72011797682166 1.44335035993246 131.818181818181 1.3092395936942 1.09858246019149 136.363636363636 0.343349805841419 1.94723351163771 134.090909090908 -1.12272727272724 1.94462067940682 131.818181818181 -2.36204554224816 0.859714269359503 129.545454545454 1.60602011552494 0.584543517683846 136.363636363636 0.98863636363633 1.71236841202826 134.090909090908 -0.389919089852097 2.21134104540008 131.818181818181 -1.92555716838539 1.61573430980295 129.545454545454 1.51467878525793 1.27096641006198 134.090909090908 0.389919089852096 2.21134104540008 131.818181818181 -1.25681818181815 2.17687294678538 129.545454545454 -2.61405401782257 0.951437853251388 127.272727272726 1.85802859109935 0.676267101575732 134.090909090908 1.12272727272724 1.94462067940682 131.818181818181 -0.436488373862774 2.47544857916245 129.545454545454 -2.13099635994912 1.78811825967343 127.272727272726 1.72011797682166 1.44335035993246 131.818181818181 0.436488373862774 2.47544857916245 129.545454545454 -1.39090909090907 2.40912521416394 127.272727272726 -2.86606249339698 1.04316143714327 124.999999999999 2.11003706667375 0.767990685467617 131.818181818181 1.25681818181815 2.17687294678538 129.545454545454 -0.483057657873452 2.73955611292482 127.272727272726 -2.33643555151285 1.96050220954391 124.999999999999 1.92555716838539 1.61573430980295 129.545454545454 0.483057657873452 2.73955611292482 127.272727272726 -1.52499999999998 2.6413774815425 124.999999999999 -3.11807096897138 1.13488502103516 122.727272727271 2.36204554224816 0.859714269359503 129.545454545454 1.39090909090906 2.40912521416394 127.272727272726 -0.52962694188413 3.00366364668719 124.999999999999 -2.54187474307658 2.1328861594144 122.727272727271 2.13099635994912 1.78811825967343 127.272727272726 0.529626941884129 3.00366364668719 124.999999999999 -1.65909090909089 2.87362974892106 122.727272727271 -3.37007944454579 1.22660860492704 120.454545454544 2.61405401782257 0.951437853251389 127.272727272726 1.52499999999998 2.6413774815425 124.999999999999 -0.576196225894807 3.26777118044956 122.727272727271 -2.74731393464031 2.30527010928488 120.454545454544 2.33643555151285 1.96050220954392 124.999999999999 0.576196225894807 3.26777118044956 122.727272727271 -1.7931818181818 3.10588201629961 120.454545454544 -3.6220879201202 1.31833218881893 118.181818181817 2.86606249339698 1.04316143714327 124.999999999999 1.65909090909089 2.87362974892106 122.727272727271 -0.622765509905485 3.53187871421193 120.454545454544 -2.95275312620404 2.47765405915537 118.181818181817 2.54187474307658 2.1328861594144 122.727272727271 0.622765509905485 3.53187871421193 120.454545454544 -1.92727272727271 3.33813428367817 118.181818181817 -3.87409639569461 1.41005577271082 115.909090909089 3.11807096897138 1.13488502103516 122.727272727271 1.7931818181818 3.10588201629961 120.454545454544 -0.669334793916163 3.7959862479743 118.181818181817 -3.15819231776777 2.65003800902585 115.909090909089 2.74731393464031 2.30527010928488 120.454545454544 0.669334793916162 3.7959862479743 118.181818181817 -2.06136363636362 3.57038655105673 115.909090909089 -4.12610487126901 1.5017793566027 113.636363636362 3.37007944454579 1.22660860492705 120.454545454544 1.92727272727271 3.33813428367817 118.181818181817 -0.71590407792684 4.06009378173667 115.909090909089 -3.3636315093315 2.82242195889634 113.636363636362 2.95275312620404 2.47765405915537 118.181818181817 0.71590407792684 4.06009378173667 115.909090909089 -2.19545454545453 3.80263881843529 113.636363636362 -4.37811334684342 1.59350294049459 111.363636363635 3.6220879201202 1.31833218881893 118.181818181817 2.06136363636362 3.57038655105673 115.909090909089 -0.762473361937518 4.32420131549904 113.636363636362 -3.56907070089523 2.99480590876682 111.363636363635 3.15819231776777 2.65003800902585 115.909090909089 0.762473361937517 4.32420131549904 113.636363636362 -2.32954545454545 4.03489108581385 111.363636363635 -4.63012182241783 1.68522652438647 109.090909090907 3.87409639569461 1.41005577271082 115.909090909089 2.19545454545453 3.80263881843529 113.636363636362 -0.809042645948196 4.58830884926141 111.363636363635 -3.77450989245896 3.1671898586373 109.090909090907 3.3636315093315 2.82242195889634 113.636363636362 0.809042645948195 4.58830884926141 111.363636363635 -2.46363636363636 4.26714335319241 109.090909090907 -4.88213029799224 1.77695010827836 106.81818181818 4.12610487126901 1.5017793566027 113.636363636362 2.32954545454545 4.03489108581385 111.363636363635 -0.855611929958873 4.85241638302378 109.090909090907 -3.97994908402268 3.33957380850779 106.81818181818 3.56907070089522 2.99480590876682 111.363636363635 0.855611929958873 4.85241638302378 109.090909090907 -2.59772727272727 4.49939562057096 106.81818181818 -5.13413877356664 1.86867369217024 104.545454545452 4.37811334684342 1.59350294049459 111.363636363635 2.46363636363636 4.26714335319241 109.090909090907 -0.902181213969551 5.11652391678615 106.81818181818 -4.18538827558641 3.51195775837827 104.545454545452 3.77450989245895 3.1671898586373 109.090909090907 0.90218121396955 5.11652391678615 106.81818181818 -2.73181818181818 4.73164788794952 104.545454545452 -5.38614724914105 1.96039727606213 102.272727272725 4.63012182241783 1.68522652438647 109.090909090907 2.59772727272727 4.49939562057096 106.81818181818 -0.948750497980228 5.38063145054852 104.545454545452 -4.39082746715014 3.68434170824876 102.272727272725 3.97994908402268 3.33957380850779 106.81818181818 0.948750497980228 5.38063145054852 104.545454545452 -2.86590909090909 4.96390015532808 102.272727272725 4.88213029799224 1.77695010827836 106.81818181818 2.73181818181818 4.73164788794952 104.545454545452 -0.995319781990906 5.64473898431089 102.272727272725 4.18538827558641 3.51195775837827 104.545454545452 0.995319781990905 5.64473898431089 102.272727272725 5.13413877356664 1.86867369217024 104.545454545452 2.86590909090909 4.96390015532808 102.272727272725 4.39082746715014 3.68434170824876 102.272727272725 5.38614724914105 1.96039727606213 102.272727272725 3.14159265358979 0 2.89993168023673 0 2.65827070688367 0 2.41660973353061 0 2.17494876017755 0 1.93328778682449 0 1.69162681347143 0 1.44996584011837 0 1.20830486676531 0 0.966643893412244 0 0.724982920059183 0 0.483321946706122 0 0.241660973353062 0 0 0 3.14159265358979 50.346896627302 0 50.346896627302 0.241660973353061 50.346896627302 0.483321946706122 50.346896627302 0.724982920059182 50.346896627302 0.966643893412243 50.346896627302 1.2083048667653 50.346896627302 1.44996584011836 50.346896627302 1.69162681347143 50.346896627302 1.93328778682449 50.346896627302 2.17494876017755 50.346896627302 2.41660973353061 50.346896627302 2.65827070688367 50.346896627302 2.89993168023673 50.346896627302 0.349065850398866 2.288495301241 0.698131700797732 2.288495301241 1.0471975511966 2.288495301241 0.349065850398866 4.576990602482 1.39626340159546 2.288495301241 0.698131700797732 4.576990602482 1.74532925199433 2.288495301241 1.0471975511966 4.576990602482 0.349065850398866 6.865485903723 2.0943951023932 2.288495301241 1.39626340159546 4.576990602482 0.698131700797732 6.865485903723 2.44346095279206 2.288495301241 1.74532925199433 4.576990602482 1.0471975511966 6.865485903723 0.349065850398866 9.153981204964 2.79252680319093 2.288495301241 2.0943951023932 4.576990602482 1.39626340159546 6.865485903723 0.698131700797732 9.153981204964 2.44346095279206 4.576990602482 1.74532925199433 6.865485903723 1.0471975511966 9.153981204964 0.349065850398866 11.442476506205 2.79252680319093 4.576990602482 2.0943951023932 6.865485903723 1.39626340159546 9.153981204964 0.698131700797732 11.442476506205 2.44346095279206 6.865485903723 1.74532925199433 9.153981204964 1.0471975511966 11.442476506205 0.349065850398866 13.730971807446 2.79252680319093 6.865485903723 2.0943951023932 9.153981204964 1.39626340159546 11.442476506205 0.698131700797732 13.730971807446 2.44346095279206 9.153981204964 1.74532925199433 11.442476506205 1.0471975511966 13.730971807446 0.349065850398866 16.019467108687 2.79252680319093 9.153981204964 2.0943951023932 11.442476506205 1.39626340159546 13.730971807446 0.698131700797732 16.019467108687 2.44346095279206 11.442476506205 1.74532925199433 13.730971807446 1.0471975511966 16.019467108687 0.349065850398866 18.307962409928 2.79252680319093 11.442476506205 2.0943951023932 13.730971807446 1.39626340159546 16.019467108687 0.698131700797732 18.307962409928 2.44346095279206 13.730971807446 1.74532925199433 16.019467108687 1.0471975511966 18.307962409928 0.349065850398866 20.596457711169 2.79252680319093 13.730971807446 2.0943951023932 16.019467108687 1.39626340159546 18.307962409928 0.698131700797732 20.596457711169 2.44346095279206 16.019467108687 1.74532925199433 18.307962409928 1.0471975511966 20.596457711169 0.349065850398866 22.88495301241 2.79252680319093 16.019467108687 2.0943951023932 18.307962409928 1.39626340159546 20.596457711169 0.698131700797732 22.88495301241 2.44346095279206 18.307962409928 1.74532925199433 20.596457711169 1.0471975511966 22.88495301241 0.349065850398866 25.173448313651 2.79252680319093 18.307962409928 2.0943951023932 20.596457711169 1.39626340159546 22.88495301241 0.698131700797732 25.173448313651 2.44346095279206 20.596457711169 1.74532925199433 22.88495301241 1.0471975511966 25.173448313651 0.349065850398866 27.461943614892 2.79252680319093 20.596457711169 2.0943951023932 22.88495301241 1.39626340159546 25.173448313651 0.698131700797732 27.461943614892 2.44346095279206 22.88495301241 1.74532925199433 25.173448313651 1.0471975511966 27.461943614892 0.349065850398866 29.750438916133 2.79252680319093 22.88495301241 2.0943951023932 25.173448313651 1.39626340159546 27.461943614892 0.698131700797732 29.750438916133 2.44346095279206 25.173448313651 1.74532925199433 27.461943614892 1.0471975511966 29.750438916133 0.349065850398866 32.038934217374 2.79252680319093 25.173448313651 2.0943951023932 27.461943614892 1.39626340159546 29.750438916133 0.698131700797732 32.038934217374 2.44346095279206 27.461943614892 1.74532925199433 29.750438916133 1.0471975511966 32.038934217374 0.349065850398866 34.327429518615 2.79252680319093 27.461943614892 2.0943951023932 29.750438916133 1.39626340159546 32.038934217374 0.698131700797732 34.327429518615 2.44346095279206 29.750438916133 1.74532925199433 32.038934217374 1.0471975511966 34.327429518615 0.349065850398866 36.615924819856 2.79252680319093 29.750438916133 2.0943951023932 32.038934217374 1.39626340159546 34.327429518615 0.698131700797732 36.615924819856 2.44346095279206 32.038934217374 1.74532925199433 34.327429518615 1.0471975511966 36.615924819856 0.349065850398866 38.904420121097 2.79252680319093 32.038934217374 2.0943951023932 34.327429518615 1.39626340159546 36.615924819856 0.698131700797732 38.904420121097 2.44346095279206 34.327429518615 1.74532925199433 36.615924819856 1.0471975511966 38.904420121097 0.349065850398866 41.192915422338 2.79252680319093 34.327429518615 2.0943951023932 36.615924819856 1.39626340159546 38.904420121097 0.698131700797732 41.192915422338 2.44346095279206 36.615924819856 1.74532925199433 38.904420121097 1.0471975511966 41.192915422338 0.349065850398866 43.481410723579 2.79252680319093 36.615924819856 2.0943951023932 38.904420121097 1.39626340159546 41.192915422338 0.698131700797732 43.481410723579 2.44346095279206 38.904420121097 1.74532925199433 41.192915422338 1.0471975511966 43.481410723579 0.349065850398866 45.76990602482 2.79252680319093 38.904420121097 2.0943951023932 41.192915422338 1.39626340159546 43.481410723579 0.698131700797732 45.76990602482 2.44346095279206 41.192915422338 1.74532925199433 43.481410723579 1.0471975511966 45.76990602482 0.349065850398866 48.058401326061 2.79252680319093 41.192915422338 2.0943951023932 43.481410723579 1.39626340159546 45.76990602482 0.698131700797732 48.058401326061 2.44346095279206 43.481410723579 1.74532925199433 45.76990602482 1.0471975511966 48.058401326061 2.79252680319093 43.481410723579 2.0943951023932 45.76990602482 1.39626340159546 48.058401326061 2.44346095279206 45.76990602482 1.74532925199433 48.058401326061 2.79252680319093 45.76990602482 2.0943951023932 48.058401326061 2.44346095279206 48.058401326061 2.79252680319093 48.058401326061 29 13 12 29 14 13 30 11 10 30 12 11 30 29 12 31 10 9 31 30 10 32 14 29 33 9 8 33 31 9 34 32 29 34 29 30 35 7 6 35 8 7 35 33 8 36 30 31 36 34 30 37 14 32 38 6 5 38 35 6 39 31 33 39 36 31 40 37 32 40 32 34 41 4 3 41 5 4 41 38 5 42 39 33 42 35 38 42 33 35 43 34 36 43 40 34 43 36 39 44 14 37 45 2 1 45 3 2 45 41 3 46 42 38 47 43 39 48 37 40 48 44 37 49 41 45 49 46 38 49 38 41 50 47 39 50 39 42 51 48 40 51 40 43 52 14 44 53 45 1 53 49 45 54 50 42 54 42 46 55 43 47 55 51 43 56 44 48 56 52 44 57 46 49 57 49 53 57 54 46 58 55 47 58 47 50 58 50 54 59 56 48 59 48 51 60 14 52 60 52 56 61 57 53 61 53 1 62 58 54 63 59 51 63 51 55 64 60 56 65 62 54 65 54 57 66 55 58 66 58 62 66 63 55 67 64 56 67 56 59 68 60 64 68 14 60 69 61 1 69 57 61 69 65 57 70 66 62 71 67 59 71 59 63 71 63 66 72 68 64 73 62 65 73 65 69 73 70 62 74 71 66 75 64 67 75 72 64 76 14 68 77 69 1 77 73 69 78 66 70 78 74 66 79 75 67 79 67 71 79 71 74 80 68 72 80 76 68 81 78 70 81 70 73 82 79 74 83 80 72 83 72 75 84 14 76 85 81 73 85 77 1 85 73 77 86 74 78 86 82 74 87 75 79 87 83 75 88 76 80 88 84 76 89 86 78 89 78 81 89 81 85 90 79 82 90 87 79 91 88 80 91 80 83 92 14 84 93 85 1 93 89 85 94 82 86 94 90 82 95 83 87 95 91 83 96 84 88 96 92 84 97 94 86 97 86 89 98 87 90 98 95 87 99 88 91 99 96 88 99 91 95 100 16 14 100 14 92 100 92 96 101 93 1 101 89 93 101 97 89 102 90 94 102 98 90 103 99 95 104 96 99 104 100 96 105 94 97 105 102 94 106 95 98 106 103 95 107 104 99 108 16 100 109 101 1 109 97 101 109 105 97 110 98 102 110 106 98 110 102 105 111 99 103 111 107 99 112 104 107 112 100 104 112 108 100 113 110 105 114 103 106 114 111 103 115 112 107 116 16 108 117 113 105 117 109 1 117 105 109 118 114 106 118 106 110 119 107 111 119 115 107 120 108 112 120 116 108 121 110 113 121 113 117 121 118 110 122 119 111 122 111 114 123 112 115 123 120 112 124 116 120 124 16 116 125 1 15 125 117 1 125 121 117 126 114 118 126 122 114 127 115 119 127 123 115 128 120 123 128 124 120 129 118 121 129 126 118 130 127 119 130 119 122 131 128 123 132 16 124 133 121 125 133 129 121 133 125 15 134 126 129 134 122 126 134 130 122 135 131 123 135 123 127 136 124 128 136 132 124 137 134 129 138 127 130 138 135 127 139 128 131 139 136 128 140 16 132 141 129 133 141 133 15 141 137 129 142 130 134 142 138 130 143 139 131 143 131 135 144 140 132 144 132 136 145 134 137 145 142 134 146 135 138 146 143 135 147 136 139 147 144 136 148 16 140 148 140 144 149 141 15 149 137 141 149 145 137 150 138 142 150 146 138 151 147 139 151 139 143 152 144 147 152 148 144 153 145 149 153 150 142 153 142 145 154 143 146 154 151 143 155 152 147 156 16 148 157 153 149 157 149 15 158 146 150 158 154 146 159 155 147 159 147 151 160 148 152 160 156 148 161 150 153 161 158 150 162 151 154 162 159 151 163 160 152 163 152 155 164 16 156 165 153 157 165 157 15 165 161 153 166 162 154 166 154 158 167 155 159 167 163 155 168 164 156 168 156 160 168 160 163 169 158 161 169 166 158 170 159 162 170 167 159 171 168 163 172 16 164 173 165 15 173 161 165 173 169 161 174 162 166 174 170 162 175 167 170 175 171 163 175 163 167 176 172 164 176 164 168 177 174 166 177 166 169 178 175 170 179 168 171 179 176 168 180 17 16 180 18 17 180 16 172 180 172 176 181 173 15 181 169 173 181 177 169 182 170 174 182 178 170 183 179 171 183 171 175 184 19 18 184 20 19 184 180 176 184 18 180 185 182 174 185 174 177 186 183 175 186 175 178 187 176 179 187 21 20 187 184 176 187 20 184 188 181 15 188 185 177 188 177 181 189 178 182 189 186 178 189 182 185 190 179 183 190 21 187 190 22 21 190 23 22 190 187 179 191 189 185 192 24 23 192 190 183 192 23 190 192 183 186 193 185 188 193 191 185 193 188 15 194 24 192 194 192 186 194 186 189 194 25 24 195 26 25 195 27 26 195 194 189 195 25 194 195 191 193 195 189 191 196 28 27 196 15 28 196 193 15 196 27 195 196 195 193 
26 24 1 0 1.94289029309402e-16
-0.0999999999998988 0 150 -0.0970941817425069 -0.0239315664287315 150 -0.0885456025652314 -0.0464723172043298 150 -0.0748510748170344 -0.0663122658240124 150 -0.0568064746730582 -0.0822983865892823 150 -0.0354604887042178 -0.0935016242684468 150 -0.0120536680255202 -0.0992708874097049 150 0.0120536680255199 -0.099270887409705 150 0.0354604887042175 -0.0935016242684469 150 0.0568064746730579 -0.0822983865892825 150 0.0748510748170342 -0.0663122658240126 150 0.0885456025652313 -0.04647231720433 150 0.0970941817425069 -0.0239315664287318 150 0.0999999999998988 3.73517273739937e-16 150 0.0970941817425069 0.0239315664287316 150 0.0885456025652314 0.0464723172043298 150 0.0748510748170344 0.0663122658240124 150 0.0568064746730581 0.0822983865892823 150 0.0354604887042177 0.0935016242684468 150 0.0120536680255201 0.0992708874097049 150 -0.0120536680255201 0.0992708874097049 150 -0.0354604887042177 0.0935016242684469 150 -0.0568064746730581 0.0822983865892824 150 -0.0748510748170343 0.0663122658240124 150 -0.0885456025652313 0.0464723172043299 150 -0.0970941817425069 0.0239315664287316 150 -0.0999999999998988 1.38777878078145e-17 -0.0970941817425069 -0.0239315664287315 -0.0885456025652314 -0.0464723172043298 -0.0748510748170344 -0.0663122658240124 -0.0568064746730582 -0.0822983865892823 -0.0354604887042178 -0.0935016242684468 -0.0120536680255202 -0.0992708874097049 0.01205366802552 -0.099270887409705 0.0354604887042175 -0.0935016242684469 0.0568064746730579 -0.0822983865892825 0.0748510748170342 -0.0663122658240126 0.0885456025652313 -0.04647231720433 0.0970941817425069 -0.0239315664287318 0.0999999999998988 -2.77555756156289e-17 0.0970941817425069 0.0239315664287316 0.0885456025652314 0.0464723172043298 0.0748510748170344 0.0663122658240124 0.0568064746730581 0.0822983865892824 0.0354604887042177 0.0935016242684468 0.0120536680255201 0.0992708874097049 -0.0120536680255201 0.0992708874097049 -0.0354604887042177 0.0935016242684468 -0.0568064746730581 0.0822983865892824 -0.0748510748170343 0.0663122658240124 -0.0885456025652313 0.0464723172043299 -0.0970941817425069 0.0239315664287316 17 1 2 17 2 3 17 3 4 17 4 5 17 5 6 17 6 7 17 7 8 17 8 9 17 9 10 17 10 11 17 11 12 17 12 13 17 13 14 17 14 15 17 15 16 17 18 19 17 19 20 17 20 21 17 21 22 17 22 23 17 23 24 17 24 25 17 25 26 17 26 1 
28 26 1 0 0.0437467554116772
6 7.34788079488412e-16 99.9999999999977 6 7.34788079488412e-16 0 5.82565090455631 -1.43589398572535 99.9999999999977 5.31273615391926 -2.78833903226261 99.9999999999977 4.49106448902661 -3.97873594944477 99.9999999999977 3.40838848038694 -4.93790319536194 99.9999999999977 2.12762932225521 -5.61009745611249 99.9999999999977 0.723220081531939 -5.95625324458832 99.9999999999977 -0.723220081531937 -5.95625324458832 99.9999999999977 -2.12762932225521 -5.61009745611249 99.9999999999977 -3.40838848038693 -4.93790319536194 99.9999999999977 -4.49106448902661 -3.97873594944477 99.9999999999977 -5.31273615391926 -2.78833903226261 99.9999999999977 -5.82565090455631 -1.43589398572535 99.9999999999977 -6 0 99.9999999999977 -6 0 0 -5.82565090455631 -1.43589398572534 0 -5.31273615391926 -2.78833903226261 0 -4.49106448902661 -3.97873594944477 0 -3.40838848038694 -4.93790319536194 0 -2.12762932225522 -5.61009745611249 0 -0.723220081531947 -5.95625324458832 0 0.723220081531929 -5.95625324458832 0 2.1276293222552 -5.61009745611249 0 3.40838848038692 -4.93790319536195 0 4.4910644890266 -3.97873594944478 0 5.31273615391925 -2.78833903226262 0 5.82565090455631 -1.43589398572536 0 3.14159265358979 50.0000000000023 3.14159265358979 150 3.38325362694285 50.0000000000023 3.62491460029592 50.0000000000023 3.86657557364898 50.0000000000023 4.10823654700204 50.0000000000023 4.3498975203551 50.0000000000023 4.59155849370816 50.0000000000023 4.83321946706122 50.0000000000023 5.07488044041428 50.0000000000023 5.31654141376734 50.0000000000023 5.5582023871204 50.0000000000023 5.79986336047346 50.0000000000023 6.04152433382652 50.0000000000023 6.28318530717959 50.0000000000023 6.28318530717959 150 6.04152433382653 150 5.79986336047346 150 5.5582023871204 150 5.31654141376734 150 5.07488044041428 150 4.83321946706122 150 4.59155849370816 150 4.3498975203551 150 4.10823654700204 150 3.86657557364898 150 3.62491460029592 150 3.38325362694286 150 2 1 3 28 3 4 28 2 3 27 4 5 27 28 4 26 5 6 26 27 5 25 6 7 25 26 6 24 7 8 24 25 7 23 8 9 23 24 8 22 9 10 22 23 9 21 10 11 21 22 10 20 11 12 20 21 11 19 20 12 18 12 13 18 19 12 17 13 14 17 18 13 16 14 15 16 17 14 
26 24 1 0 8.88178419700125e-16
6 7.34788079488412e-16 0 5.82565090455631 1.43589398572535 0 5.31273615391926 2.78833903226261 0 4.49106448902661 3.97873594944477 0 3.40838848038694 4.93790319536194 0 2.12762932225521 5.61009745611249 0 0.723220081531939 5.95625324458832 0 -0.723220081531937 5.95625324458832 0 -2.12762932225521 5.61009745611249 0 -3.40838848038693 4.93790319536194 0 -4.49106448902661 3.97873594944477 0 -5.31273615391926 2.78833903226261 0 -5.82565090455631 1.43589398572535 0 -6 0 0 -5.82565090455631 -1.43589398572534 0 -5.31273615391926 -2.78833903226261 0 -4.49106448902661 -3.97873594944477 0 -3.40838848038694 -4.93790319536194 0 -2.12762932225522 -5.61009745611249 0 -0.723220081531947 -5.95625324458832 0 0.723220081531929 -5.95625324458832 0 2.1276293222552 -5.61009745611249 0 3.40838848038692 -4.93790319536195 0 4.4910644890266 -3.97873594944478 0 5.31273615391925 -2.78833903226262 0 5.82565090455631 -1.43589398572536 0 6 0 5.82565090455631 1.43589398572535 5.31273615391926 2.78833903226261 4.49106448902661 3.97873594944477 3.40838848038694 4.93790319536194 2.12762932225522 5.61009745611249 0.72322008153194 5.95625324458832 -0.723220081531937 5.95625324458832 -2.12762932225521 5.61009745611249 -3.40838848038693 4.93790319536194 -4.49106448902661 3.97873594944477 -5.31273615391926 2.78833903226261 -5.82565090455631 1.43589398572535 -6 8.88178419700125e-16 -5.82565090455631 -1.43589398572534 -5.31273615391926 -2.78833903226261 -4.49106448902661 -3.97873594944477 -3.40838848038694 -4.93790319536194 -2.12762932225522 -5.61009745611249 -0.723220081531947 -5.95625324458832 0.723220081531928 -5.95625324458832 2.1276293222552 -5.61009745611249 3.40838848038693 -4.93790319536195 4.4910644890266 -3.97873594944478 5.31273615391925 -2.78833903226262 5.82565090455631 -1.43589398572536 19 16 17 19 17 18 21 19 20 13 14 15 13 15 16 11 12 13 11 16 19 11 13 16 9 10 11 9 19 21 9 11 19 1 24 25 1 25 26 7 8 9 2 24 1 6 9 21 6 7 9 4 2 3 4 5 6 4 21 22 4 22 23 4 23 24 4 24 2 4 6 21 
28 26 1 0 0.0437467554116763
-6 0 99.9999999999977 -5.82565090455631 1.43589398572534 99.9999999999977 -5.31273615391926 2.78833903226261 99.9999999999977 -4.49106448902661 3.97873594944477 99.9999999999977 -3.40838848038694 4.93790319536194 99.9999999999977 -2.12762932225522 5.61009745611249 99.9999999999977 -0.723220081531947 5.95625324458832 99.9999999999977 0.723220081531929 5.95625324458832 99.9999999999977 2.1276293222552 5.61009745611249 99.9999999999977 3.40838848038692 4.93790319536195 99.9999999999977 4.4910644890266 3.97873594944478 99.9999999999977 5.31273615391925 2.78833903226262 99.9999999999977 5.82565090455631 1.43589398572536 99.9999999999977 6 7.34788079488412e-16 99.9999999999977 6 7.34788079488412e-16 0 5.82565090455631 1.43589398572535 0 5.31273615391926 2.78833903226261 0 4.49106448902661 3.97873594944477 0 3.40838848038694 4.93790319536194 0 2.12762932225521 5.61009745611249 0 0.723220081531939 5.95625324458832 0 -0.723220081531937 5.95625324458832 0 -2.12762932225521 5.61009745611249 0 -3.40838848038693 4.93790319536194 0 -4.49106448902661 3.97873594944477 0 -5.31273615391926 2.78833903226261 0 -5.82565090455631 1.43589398572535 0 -6 0 0 0 50.0000000000023 0.241660973353061 50.0000000000023 0.483321946706122 50.0000000000023 0.724982920059182 50.0000000000023 0.966643893412243 50.0000000000023 1.2083048667653 50.0000000000023 1.44996584011836 50.0000000000023 1.69162681347143 50.0000000000023 1.93328778682449 50.0000000000023 2.17494876017755 50.0000000000023 2.41660973353061 50.0000000000023 2.65827070688367 50.0000000000023 2.89993168023673 50.0000000000023 3.14159265358979 50.0000000000023 3.14159265358979 150 2.89993168023673 150 2.65827070688367 150 2.41660973353061 150 2.17494876017755 150 1.93328778682449 150 1.69162681347143 150 1.44996584011837 150 1.20830486676531 150 0.966643893412244 150 0.724982920059183 150 0.483321946706122 150 0.241660973353062 150 0 150 28 1 2 27 2 3 27 28 2 26 3 4 26 27 3 25 4 5 25 26 4 24 5 6 24 25 5 23 6 7 23 24 6 22 7 8 22 23 7 21 8 9 21 22 8 20 9 10 20 21 9 19 10 11 19 20 10 18 11 12 18 19 11 17 18 12 16 12 13 16 13 14 16 17 12 15 16 14 

TShapes 30
Ve
1e-07
0.0999999999998988 3.73517273739937e-16 150
0 0

0101101
*
Ve
1e-07
6 7.34788079488412e-16 99.9999999999977
0 0

0101101
*
Ed
 1e-07 1 1 0
1  1 0 5.18469275484108e-33 50.346896627302
2  1 1 0 5.18469275484108e-33 50.346896627302
2  2 2 0 5.18469275484108e-33 50.346896627302
4 CN 1 0 2 0
6  1 1 0
6  2 2 0
0

0101000
+30 0 -29 0 *
Ve
1e-07
-0.0999999999998988 0 150
0 0

0101101
*
Ed
 1e-07 1 1 0
1  2 0 3.14159265358979 6.28318530717959
2  3 1 0 3.14159265358979 6.28318530717959
4 C0 1 0 3 0
6  3 1 0
6  4 3 0
0

0101000
+27 0 -30 0 *
Ve
1e-07
-6 0 99.9999999999977
0 0

0101101
*
Ed
 1e-07 1 1 0
1  3 0 0 50.346896627302
2  4 1 0 0 50.346896627302
2  5 2 0 0 50.346896627302
4 CN 1 0 2 0
6  5 1 0
6  6 2 0
0

0101000
+27 0 -25 0 *
Ed
 1e-07 1 1 0
1  4 0 0 3.14159265358979
2  6 1 0 0 3.14159265358979
2  7 4 0 0 3.14159265358979
4 C0 1 0 4 0
6  7 1 0
6  8 4 0
0

0101000
+29 0 -25 0 *
Wi

0101100
-28 0 -26 0 +24 0 -23 0 *
Fa
0  1e-07 1 0
2  1
0111000
+22 0 *
Ve
1e-07
-6 0 0
0 0

0101101
*
Ve
1e-07
6 7.34788079488412e-16 0
0 0

0101101
*
Ed
 1e-07 1 1 0
1  5 0 3.14159265358979 6.28318530717959
2  8 4 0 3.14159265358979 6.28318530717959
4 C0 5 0 4 0
6  9 4 0
6  10 5 0
0

0101000
+20 0 -19 0 *
Ed
 1e-07 1 1 0
1  6 0 0 3.14159265358979
2  9 6 0 0 3.14159265358979
4 C0 5 0 6 0
6  11 6 0
6  12 5 0
0

0101000
+19 0 -20 0 *
Wi

0101100
-18 0 -17 0 *
Fa
0  1e-07 5 0
2  5
0111000
-16 0 *
Ed
 1e-07 1 1 0
1  7 0 0 3.14159265358979
2  10 2 0 0 3.14159265358979
4 C0 3 0 2 0
6  13 2 0
6  14 3 0
0

0101000
+30 0 -27 0 *
Wi

0101100
+26 0 +14 0 *
Fa
0  1e-07 3 0
2  3
0111000
+13 0 *
Ed
 1e-07 1 1 0
1  8 0 50.0000000000023 150
2  11 4 0 50.0000000000023 150
2  12 6 0 50.0000000000023 150
4 CN 4 0 6 0
6  15 4 0
6  16 6 0
0

0101000
+29 0 -19 0 *
Ed
 1e-07 1 1 0
1  9 0 50.0000000000023 150
2  13 4 0 50.0000000000023 150
2  14 6 0 50.0000000000023 150
4 CN 4 0 6 0
6  17 4 0
6  18 6 0
0

0101000
+25 0 -20 0 *
Wi

0101100
-11 0 +23 0 +10 0 +18 0 *
Fa
0  1e-07 4 0
2  4
0111000
+9 0 *
Ed
 1e-07 1 1 0
1  10 0 3.14159265358979 6.28318530717959
2  15 6 0 3.14159265358979 6.28318530717959
2  16 2 0 3.14159265358979 6.28318530717959
4 C0 6 0 2 0
6  19 2 0
6  20 6 0
0

0101000
+25 0 -29 0 *
Wi

0101100
+7 0 +11 0 +17 0 -10 0 *
Fa
0  1e-07 6 0
2  6
0111000
+6 0 *
Wi

0101100
-14 0 +28 0 -7 0 -24 0 *
Fa
0  1e-07 2 0
2  2
0111000
+4 0 *
Sh

0101100
+21 0 -15 0 +12 0 +8 0 +5 0 +3 0 *
So

0100000
+2 0 *

+1 1 